<svg xmlns="http://www.w3.org/2000/svg" xmlns:xlink="http://www.w3.org/1999/xlink" width="1152" zoomAndPan="magnify" viewBox="0 0 864 576" height="768" preserveAspectRatio="xMidYMid meet" version="1.0"><defs><filter x="0%" y="0%" width="100%" height="100%" id="45c0f9db9a"><feColorMatrix values="0 0 0 0 1 0 0 0 0 1 0 0 0 0 1 0 0 0 1 0" color-interpolation-filters="sRGB"/></filter><mask id="2224c07b7d"><g filter="url(#45c0f9db9a)"><rect x="-86.4" width="1036.8" fill="#000000" y="-57.6" height="691.2" fill-opacity="0.21"/></g></mask><clipPath id="c18a4ce444"><path d="M 0 0.839844 L 864 0.839844 L 864 550.621094 L 0 550.621094 Z M 0 0.839844 " clip-rule="nonzero"/></clipPath><clipPath id="e51d6b6374"><path d="M 0 0.839844 L 864 0.839844 L 864 550 L 0 550 Z M 0 0.839844 " clip-rule="nonzero"/></clipPath><clipPath id="04a750523a"><rect x="0" width="864" y="0" height="551"/></clipPath><clipPath id="1b4839c8f7"><rect x="0" width="864" y="0" height="551"/></clipPath></defs><g mask="url(#2224c07b7d)"><g transform="matrix(1, 0, 0, 1, 0, 15)"><g clip-path="url(#1b4839c8f7)"><g clip-path="url(#c18a4ce444)"><g transform="matrix(1, 0, 0, 1, 0, -0.000000000000015987)"><g clip-path="url(#04a750523a)"><g clip-path="url(#e51d6b6374)"><path fill="#a8af8e" d="M 0.261719 480.011719 C 0.5 479.21875 1.167969 478.574219 2.046875 478.613281 C 2.84375 478.710938 3.355469 477.871094 4.117188 477.722656 C 6.78125 477.390625 9.375 476.796875 12.011719 476.226562 C 18.621094 475.792969 25.324219 476.265625 31.84375 474.8125 C 44.355469 472.273438 57.125 473.636719 69.738281 472.1875 C 74.871094 471.433594 80.023438 470.953125 85.179688 470.53125 C 91.148438 468.1875 97.300781 466.140625 102.882812 462.992188 C 109.179688 459.640625 115.855469 457.039062 122.179688 453.746094 C 124.210938 452.058594 125.589844 449.660156 127.25 447.617188 C 131.113281 442.859375 135.25 438.320312 138.351562 432.984375 C 144.273438 424.3125 149.648438 415.296875 155.113281 406.335938 C 161.085938 398.242188 166.058594 389.484375 171.792969 381.230469 C 176.546875 374.503906 179.59375 366.730469 184.453125 360.082031 C 189.121094 353.917969 195.363281 349.1875 200.523438 343.460938 C 211.035156 331.214844 223.019531 320.308594 235.695312 310.347656 C 240.144531 306.683594 243.777344 302.019531 248.875 299.183594 C 252.542969 297.144531 256.332031 295.304688 260.265625 293.84375 C 265.039062 291.953125 275.152344 288.296875 276.617188 295.816406 C 277.058594 300.742188 273.671875 304.917969 271.40625 309.019531 C 268.476562 313.714844 265.3125 318.261719 262.796875 323.203125 C 257.527344 332.925781 252.40625 342.789062 246.183594 351.949219 C 239.421875 360.921875 231.964844 369.390625 224.640625 377.910156 C 213.816406 388.640625 204.601562 400.964844 192.605469 410.46875 C 187.976562 414.195312 183.554688 418.164062 178.871094 421.820312 C 174.289062 425.371094 169.109375 427.996094 164.15625 430.957031 C 153.894531 438.0625 144.097656 445.871094 132.816406 451.378906 C 132.8125 451.378906 132.8125 451.382812 132.808594 451.382812 C 131.648438 452.445312 130.535156 453.566406 129.128906 454.296875 C 128.824219 454.773438 128.328125 455.117188 127.773438 455.230469 C 127.515625 455.242188 127.226562 455.207031 127.03125 455.039062 C 121.304688 459.273438 114.847656 462.4375 108.277344 465.230469 C 107.355469 465.726562 106.421875 466.207031 105.464844 466.636719 C 105.214844 466.804688 104.886719 466.832031 104.609375 466.757812 C 103.714844 467.121094 102.824219 467.484375 101.929688 467.84375 C 101.078125 468.132812 100.210938 468.449219 99.308594 468.539062 C 99.28125 468.539062 99.253906 468.535156 99.230469 468.535156 C 98.335938 468.898438 97.445312 469.261719 96.550781 469.621094 C 99.953125 469.332031 103.355469 469.007812 106.746094 468.585938 C 119.3125 466.425781 132.027344 465.804688 144.699219 464.648438 C 154.335938 463.410156 163.683594 460.59375 173.226562 458.804688 C 188.46875 456.238281 203.441406 452.429688 218.59375 449.40625 C 225.757812 447.949219 233.023438 446.941406 240.132812 445.199219 C 247.613281 443.332031 254.707031 440.199219 262.160156 438.226562 C 269.054688 436.429688 275.863281 434.355469 282.675781 432.3125 C 284.242188 430.226562 285.734375 428.070312 287.574219 426.199219 C 289.609375 423.980469 291.578125 421.695312 293.355469 419.257812 C 297.113281 413.964844 301.570312 409.21875 306.21875 404.742188 C 311.039062 396.390625 315.226562 387.636719 318.535156 378.574219 C 322.953125 364.003906 327.324219 349.414062 331.496094 334.769531 C 334.523438 326.152344 336.765625 317.300781 339.292969 308.53125 C 342.296875 299.332031 347.3125 291.003906 352.382812 282.824219 C 355.894531 277.015625 359.25 271.066406 363.402344 265.683594 C 369.414062 258.167969 376.992188 252.167969 383.789062 245.410156 C 390.371094 239.667969 402.621094 227.226562 409.230469 239.402344 C 410.605469 242.542969 409.5625 245.988281 409.023438 249.207031 C 407.953125 254.632812 406.363281 259.925781 404.800781 265.222656 C 400.375 282.300781 392.734375 298.203125 385.554688 314.234375 C 379.863281 325.585938 373.242188 336.527344 366.148438 347.050781 C 360.5 354.695312 353.703125 361.390625 347.839844 368.863281 C 341.941406 376.144531 335.726562 383.210938 328.828125 389.566406 C 322.855469 395.164062 316.378906 400.21875 310.933594 406.359375 C 309.246094 407.820312 308.550781 409.929688 307.277344 411.691406 C 306.84375 412.238281 306.167969 412.648438 305.464844 412.714844 C 305.296875 412.679688 305.175781 412.746094 305.105469 412.914062 C 302.765625 415.589844 300.332031 418.1875 297.875 420.753906 C 294.894531 423.84375 292.226562 427.21875 289.320312 430.351562 C 290.007812 430.148438 290.695312 429.941406 291.386719 429.742188 C 302.417969 426.921875 313.058594 422.949219 323.40625 418.214844 C 333.027344 414.367188 342.992188 411.398438 352.515625 407.289062 C 362.136719 403.035156 371.429688 398.0625 381.15625 394.054688 C 389.351562 390.769531 397.914062 388.394531 405.738281 384.222656 C 410.980469 381.496094 416.1875 378.699219 421.375 375.871094 C 425.078125 371.71875 428.253906 367.132812 431.351562 362.5 C 432.589844 359.566406 433.835938 356.632812 435.40625 353.847656 C 437.554688 349.613281 440.335938 345.757812 442.851562 341.742188 C 443.636719 339.613281 444.351562 337.453125 445.03125 335.289062 C 447.253906 328.566406 449.6875 321.914062 451.515625 315.074219 C 454.007812 304.847656 457.785156 295.027344 460.847656 284.988281 C 462.699219 278.027344 464.15625 270.917969 466.957031 264.253906 C 468.597656 260.515625 470.167969 256.75 471.785156 253.003906 C 477.367188 241.21875 483.097656 229.496094 488.621094 217.691406 C 493.652344 209.308594 499.972656 201.742188 506.554688 194.558594 C 510.207031 190.695312 513.59375 195.730469 514.707031 199.128906 C 516.796875 204.324219 516.453125 210.078125 516.695312 215.589844 C 516.914062 223.527344 515.636719 231.386719 513.714844 239.0625 C 511.066406 249.789062 508.601562 260.765625 503.660156 270.710938 C 498.261719 280.539062 491.984375 289.855469 486.5 299.640625 C 482.5625 306.59375 478.035156 313.179688 473.230469 319.554688 C 465.53125 330.175781 456.714844 339.925781 446.984375 348.714844 C 444.730469 350.820312 442.453125 352.902344 440.246094 355.054688 C 439.324219 355.722656 439.105469 356.941406 438.53125 357.882812 C 436.289062 362.378906 433.609375 366.636719 430.589844 370.640625 C 440.445312 364.476562 450.78125 359.046875 460.355469 352.664062 C 467.71875 347.527344 474.738281 341.90625 482.398438 337.195312 C 491.851562 331.386719 501.976562 326.648438 510.875 319.949219 C 523.359375 310.347656 535.984375 300.941406 547.859375 290.59375 C 548.289062 290.265625 548.714844 289.929688 549.144531 289.597656 C 549.320312 289.296875 549.484375 288.984375 549.664062 288.683594 C 552.167969 285.628906 554.34375 282.363281 556.609375 279.125 C 560.066406 274.542969 564.132812 270.421875 567.425781 265.714844 C 575.617188 252.273438 581.839844 237.578125 586.421875 222.507812 C 585.773438 222.078125 585.28125 221.472656 585.0625 220.609375 C 580.027344 219.253906 576.039062 215.628906 574.113281 210.785156 C 570.160156 203.027344 568.988281 194.089844 571.25 185.636719 C 576.519531 164.148438 593.535156 156.152344 607.324219 176.628906 C 616.738281 190.175781 611.417969 215.816406 595.683594 222.355469 C 594.089844 222.90625 591.398438 223.515625 589.109375 223.328125 C 586.441406 234.152344 582.671875 244.746094 577.855469 254.777344 C 574.535156 261.226562 570.09375 266.964844 565.964844 272.898438 C 563.925781 275.84375 561.777344 278.6875 559.523438 281.445312 C 570.644531 272.542969 581.59375 263.433594 593.171875 255.105469 C 602.886719 248.636719 611.1875 240.453125 620.125 233.007812 C 625.210938 228.898438 630.359375 224.832031 635.339844 220.582031 C 636.378906 218.785156 637.386719 216.972656 638.53125 215.242188 C 642.578125 209.34375 645.066406 202.648438 647.765625 196.082031 C 649.832031 191.367188 652.21875 186.8125 654.402344 182.15625 C 654.390625 182.136719 654.390625 182.117188 654.378906 182.097656 C 654.378906 182.09375 654.375 182.089844 654.375 182.085938 C 654.078125 181.523438 654.105469 180.867188 654.203125 180.25 C 654.425781 177.695312 654.523438 175.144531 654.585938 172.582031 C 654.988281 161.109375 654.589844 149.632812 654.144531 138.171875 C 654.183594 127.695312 656.378906 117.382812 658.054688 107.082031 C 658.605469 103.863281 659.378906 100.722656 660.332031 97.601562 C 662.40625 90.828125 665.117188 84.273438 667.273438 77.527344 C 671.046875 62.964844 680.457031 51.066406 687.21875 37.890625 C 691.546875 29.71875 694.261719 20.5 700.042969 13.210938 C 704.078125 9.453125 712.636719 -4.25 718.378906 3.121094 C 719.882812 5.839844 719.015625 9.0625 718.96875 12.011719 C 718.292969 22.363281 718.332031 32.746094 717.394531 43.078125 C 716.40625 51.742188 715.671875 60.46875 714.1875 69.0625 C 713.058594 74.199219 711.410156 79.191406 709.851562 84.207031 C 706.609375 95.960938 701.976562 107.199219 695.898438 117.777344 C 692.28125 125.636719 687.101562 132.542969 681.785156 139.3125 C 673.203125 150.980469 666.464844 163.945312 660.050781 176.894531 C 656.003906 186.828125 653.28125 197.320312 647.964844 206.714844 C 647.222656 208.101562 646.523438 209.519531 645.832031 210.9375 C 645.855469 210.910156 645.882812 210.886719 645.910156 210.859375 C 654.136719 202 661.902344 192.738281 670.804688 184.511719 C 679.601562 176.019531 687.417969 166.578125 696.273438 158.144531 C 707.003906 148.078125 717.300781 137.542969 728.132812 127.585938 C 730.945312 125.066406 733.804688 122.59375 736.667969 120.132812 C 738.535156 112.085938 748.789062 98.105469 752.101562 93.152344 C 756.582031 87.054688 761.074219 80.882812 766.691406 75.761719 C 772.488281 70.449219 778.953125 65.9375 785.136719 61.097656 C 794.058594 53.785156 803.582031 47.289062 813.792969 41.890625 C 818.621094 39.25 823.730469 37.199219 828.910156 35.351562 C 835.621094 33.023438 842.070312 29.664062 849.15625 28.601562 C 852.066406 28.023438 856.890625 28.3125 856.566406 32.320312 C 855.824219 36.875 851.589844 39.785156 848.949219 43.300781 C 841.988281 50.433594 836.144531 58.523438 829.664062 66.070312 C 822.394531 74.011719 815.605469 82.546875 807.210938 89.351562 C 800.242188 94.554688 792.734375 98.984375 785.636719 104.007812 C 776.210938 110.660156 765.921875 115.839844 754.996094 119.519531 C 751.085938 120.972656 747.542969 123.257812 743.574219 124.546875 C 741.535156 125.023438 739.492188 125.5625 737.4375 125.988281 C 733.527344 129.871094 729.648438 133.789062 725.65625 137.59375 C 711.449219 151.25 697.292969 164.964844 683.585938 179.117188 C 673.066406 190.292969 663.539062 202.472656 651.523438 212.136719 C 649.242188 214.113281 647.011719 216.140625 644.796875 218.191406 C 645.304688 217.945312 645.808594 217.691406 646.304688 217.414062 C 649.777344 215.617188 653.335938 213.984375 657.09375 212.875 C 667.011719 210.089844 677.269531 208.75 687.230469 206.121094 C 690.167969 205.441406 693.175781 204.859375 696.0625 204.039062 C 698.175781 202.589844 700.261719 201.097656 702.304688 199.550781 C 713.574219 190.792969 724.285156 181.273438 736.355469 173.601562 C 744.890625 168.4375 754.375 165.109375 763.554688 161.300781 C 773.636719 156.648438 784.507812 154.601562 795.375 152.757812 C 805.84375 151.0625 816.226562 148.734375 826.816406 147.929688 C 833.5625 147.527344 840.269531 148.800781 847.011719 148.851562 C 855.710938 149.332031 862.871094 150.980469 863.667969 154.519531 C 863.949219 154.777344 863.917969 155.167969 863.714844 155.472656 C 863.523438 157.78125 860.921875 160.785156 854.863281 164.644531 C 838.167969 176.367188 820.4375 187.625 800.125 191.601562 C 787.984375 194.289062 776.1875 198.589844 763.746094 199.816406 C 757.101562 200.683594 750.496094 201.792969 743.804688 202.28125 C 733.765625 202.835938 723.8125 203.890625 713.964844 206.007812 C 701.113281 208.503906 688.265625 211.003906 675.324219 212.988281 C 664.449219 215.382812 654.421875 220.417969 643.648438 223.207031 C 641.371094 224.015625 639.144531 225.011719 636.835938 225.667969 C 630.917969 231.273438 624.980469 236.855469 618.609375 241.949219 C 604.472656 252.027344 591.035156 263.011719 577.597656 274.003906 C 563.199219 285.070312 548.976562 296.351562 534.828125 307.730469 C 546.640625 304.488281 558.042969 299.6875 570.269531 298.144531 C 580.097656 297.175781 589.695312 295.105469 599.242188 292.75 C 599.246094 292.398438 599.332031 292.042969 599.441406 291.714844 C 600.519531 287.964844 602.75 284.671875 605.488281 281.9375 C 616.429688 271.316406 632.21875 264.992188 647.480469 267.707031 C 654.75 269.171875 658.472656 276.660156 660.773438 283.042969 C 663.410156 289.714844 660.644531 297.425781 655.59375 302.191406 C 651.289062 306.304688 645.261719 307.558594 639.558594 308.339844 C 630.195312 310.09375 620.785156 308.292969 612.179688 304.421875 C 609.0625 303.351562 605.996094 301.910156 603.738281 299.433594 C 602.625 298.203125 601.582031 296.90625 600.398438 295.738281 C 582.492188 299.90625 564.347656 303.148438 546.480469 307.457031 C 540.238281 308.945312 534.472656 311.796875 528.496094 314.019531 C 527.6875 314.257812 526.890625 314.511719 526.09375 314.769531 C 525.265625 315.441406 524.433594 316.109375 523.605469 316.78125 C 514.53125 323.484375 504.96875 329.503906 495.949219 336.285156 C 483.140625 346.414062 468.191406 353.097656 454.53125 361.871094 C 449.910156 365.214844 445.121094 368.285156 440.25 371.234375 C 445.34375 370.230469 450.519531 369.6875 455.683594 369.074219 C 465.003906 367.578125 474.402344 366.519531 483.832031 366.078125 C 497.726562 358.074219 512.734375 352.371094 528 347.566406 C 533.324219 345.785156 538.929688 345.144531 544.449219 344.226562 C 552.367188 343.023438 560.234375 341.5 568.1875 340.511719 C 579.0625 339.234375 590.027344 340.152344 600.941406 339.960938 C 612.371094 339.574219 623.757812 340.644531 635.125 341.71875 C 642.8125 342.324219 650.320312 344.164062 657.972656 345.050781 C 665.371094 345.773438 672.789062 346.777344 679.535156 350.105469 C 683.3125 351.683594 686.808594 353.765625 690.347656 355.792969 C 692.996094 357.171875 696.179688 359.117188 695.960938 362.515625 C 695.824219 366.46875 691.871094 368.242188 688.601562 369.308594 C 682.785156 371.53125 676.902344 373.585938 670.914062 375.300781 C 660.496094 378.007812 649.929688 380.480469 639.167969 381.261719 C 635.167969 381.605469 631.152344 381.539062 627.140625 381.539062 C 619.253906 381.507812 611.398438 382.292969 603.515625 382.320312 C 595.417969 382.28125 587.351562 381.316406 579.273438 380.835938 C 571.011719 380.285156 562.976562 378.171875 554.773438 377.1875 C 543.753906 376.058594 532.886719 373.875 521.882812 372.613281 C 516.132812 371.808594 510.472656 370.410156 504.648438 370.183594 C 490.921875 369.671875 477.207031 370.988281 463.511719 371.703125 C 455.367188 371.582031 447.621094 374 439.710938 375.527344 C 436.835938 375.804688 433.984375 376.195312 431.136719 376.59375 C 428.027344 378.378906 424.910156 380.144531 421.796875 381.917969 C 421.425781 382.117188 421.050781 382.304688 420.675781 382.5 C 416.773438 386.871094 412.613281 391 407.921875 394.542969 C 398.867188 400.980469 390.460938 408.492188 380.613281 413.714844 C 374.820312 416.65625 368.574219 418.527344 362.3125 420.160156 C 355.820312 421.855469 349.527344 424.40625 342.855469 425.304688 C 336.433594 426.027344 329.941406 425.453125 323.574219 426.765625 C 321.171875 427.265625 318.691406 427.15625 316.324219 427.664062 C 297.238281 433.375 278.425781 439.992188 259.308594 445.644531 C 252.441406 447.65625 245.316406 448.671875 238.433594 450.664062 C 237.972656 450.796875 237.515625 450.9375 237.054688 451.070312 C 245.171875 450.800781 253.257812 451.726562 261.371094 451.59375 C 268.859375 451.511719 276.351562 451.148438 283.839844 451.066406 C 293.941406 450.988281 303.925781 452.550781 313.90625 453.929688 C 331.203125 449.585938 348.539062 444.5 366.441406 443.242188 C 374.433594 442.789062 382.429688 443.667969 390.410156 443.921875 C 401.222656 443.972656 412.019531 444.25 422.757812 445.613281 C 435.109375 446.675781 446.9375 450.671875 459.15625 452.558594 C 473.804688 454.6875 487.457031 460.957031 500.957031 466.726562 C 505.125 468.449219 511.167969 474.953125 505.179688 478.203125 C 502.285156 479.265625 499.097656 479.242188 496.066406 479.796875 C 482.40625 481.890625 468.6875 483.421875 454.84375 483.078125 C 441.796875 483.582031 428.808594 482.75 415.953125 480.464844 C 406.679688 479.398438 397.644531 477.09375 388.84375 474.019531 C 383.359375 472.136719 377.664062 471.011719 372 469.820312 C 364.054688 468.199219 356.355469 465.652344 348.539062 463.527344 C 340.453125 461.515625 332.132812 460.621094 323.992188 458.835938 C 322.425781 458.480469 320.847656 458.175781 319.269531 457.894531 C 319.199219 457.914062 319.125 457.921875 319.058594 457.957031 C 318.898438 458.160156 318.667969 458.261719 318.417969 458.28125 C 317.957031 458.269531 317.695312 457.96875 317.613281 457.605469 C 311.519531 456.617188 305.347656 456.128906 299.164062 456.011719 C 290.730469 455.816406 282.296875 455.871094 273.863281 455.523438 C 265.390625 455.257812 256.925781 454.503906 248.449219 455.183594 C 240.554688 455.886719 232.621094 455.25 224.738281 456 C 221.457031 456.445312 218.1875 457.039062 214.878906 457.15625 C 207.820312 458.765625 200.699219 460.097656 193.59375 461.496094 C 183.585938 463.6875 173.675781 466.378906 163.484375 467.660156 C 153.484375 468.894531 143.429688 469.65625 133.546875 471.707031 C 119.273438 474.28125 104.753906 474.835938 90.417969 476.972656 C 88.792969 477.160156 87.160156 477.261719 85.53125 477.332031 C 88.839844 478.304688 92.082031 479.613281 95.4375 480.429688 C 102.066406 482.042969 108.742188 483.695312 115.011719 486.433594 C 117.269531 487.363281 119.488281 488.410156 121.710938 489.386719 C 122.085938 489.515625 122.527344 489.371094 122.914062 489.320312 C 140.039062 486.980469 157.152344 489.972656 174.074219 492.476562 C 183.605469 494.214844 193.246094 495.265625 202.769531 496.980469 C 212.132812 499.171875 221.480469 501.402344 230.769531 503.863281 C 237.085938 505.664062 242.898438 508.742188 248.847656 511.421875 C 264.703125 517.304688 279.289062 526.125 293.832031 534.660156 C 296.902344 536.640625 304.496094 544.453125 300.410156 547.945312 C 299.011719 549.34375 296.976562 549.558594 295.105469 549.269531 C 291.785156 549.109375 288.445312 549.46875 285.117188 549.46875 C 271.464844 550.125 257.726562 548.523438 244.492188 545.113281 C 234.582031 541.816406 224.507812 539.121094 214.453125 536.304688 C 200.320312 531.699219 187.085938 524.816406 174.023438 517.808594 C 166.140625 514.683594 158.578125 510.910156 151.25 506.632812 C 145.171875 503.609375 138.898438 500.953125 132.929688 497.6875 C 123.621094 492.9375 113.5 490.175781 103.722656 486.59375 C 99.011719 485.011719 94.417969 483.019531 89.597656 481.765625 C 84.902344 480.804688 80.140625 480.128906 75.460938 479.070312 C 73.347656 478.800781 71.128906 479.167969 69.097656 478.386719 C 68.84375 478.292969 68.546875 478.101562 68.257812 478.1875 C 68.097656 478.238281 67.96875 478.335938 67.792969 478.359375 C 67.277344 478.445312 66.78125 478.113281 66.695312 477.578125 C 66.691406 477.472656 66.707031 477.378906 66.722656 477.28125 C 64.945312 477.300781 63.167969 477.347656 61.390625 477.472656 C 51.195312 478.203125 41.132812 480.222656 30.863281 479.667969 C 25.113281 479.382812 19.417969 480.214844 13.773438 481.175781 C 10.648438 481.675781 7.53125 481.230469 4.441406 482.046875 C 3.804688 482.210938 2.953125 481.625 2.292969 481.890625 C 1.066406 482.550781 -0.105469 481.226562 0.257812 480.019531 Z M 249.84375 305.09375 C 240.457031 311.441406 231.796875 318.683594 223.464844 326.351562 C 215.8125 333.710938 208.175781 341.085938 200.558594 348.476562 C 194.371094 354.761719 189.492188 362.128906 184.011719 369.003906 C 178.542969 375.792969 174.578125 383.582031 170.105469 391.019531 C 164.058594 400.273438 157.957031 409.492188 151.703125 418.609375 C 147.257812 425.355469 143.515625 432.550781 138.605469 438.988281 C 137.09375 440.933594 135.570312 442.867188 133.988281 444.753906 C 134.070312 444.679688 134.152344 444.601562 134.234375 444.53125 C 136.988281 442.199219 138.796875 439.042969 141.082031 436.292969 C 144.636719 432.167969 148.101562 427.996094 151.144531 423.476562 C 156.222656 416.800781 161.652344 410.382812 166.316406 403.429688 C 166.574219 403.113281 166.746094 402.714844 167.066406 402.46875 C 167.738281 402.039062 168.0625 402.855469 167.660156 403.292969 C 161.015625 413.179688 153.511719 422.472656 146.394531 432.027344 C 142.550781 436.839844 138.789062 441.925781 134.460938 446.375 C 134.5 446.347656 134.539062 446.324219 134.582031 446.296875 C 137.402344 443.753906 140.496094 441.523438 143.261719 438.910156 C 146.785156 435.46875 149.960938 431.695312 153.375 428.148438 C 156.617188 424.730469 159.988281 421.4375 163.269531 418.054688 C 168.382812 412.683594 172.546875 406.507812 177.464844 400.964844 C 183.886719 393.769531 189.496094 385.910156 196.011719 378.789062 C 202.921875 369.382812 210.320312 360.316406 218.15625 351.65625 C 222.953125 346.917969 226.953125 341.453125 231.820312 336.785156 C 236.566406 332.101562 241.042969 327.164062 245.734375 322.4375 C 254.03125 313.8125 262.628906 305.390625 270.042969 295.957031 C 262.457031 294.449219 255.636719 300.886719 249.847656 305.09375 Z M 185.09375 412.167969 C 196.328125 402.101562 208.152344 392.492188 217.546875 380.605469 C 226.867188 369.902344 236.40625 359.421875 244.738281 347.90625 C 248.128906 343.71875 251.171875 339.246094 253.230469 334.238281 C 256.558594 326.292969 260.882812 318.859375 265.546875 311.628906 C 266.765625 308.976562 276.523438 297.847656 271.621094 296.382812 C 271.421875 296.316406 271.230469 296.277344 271.03125 296.222656 C 270.535156 296.882812 270.050781 297.546875 269.546875 298.203125 C 260.566406 309.261719 250.472656 319.320312 240.605469 329.550781 C 235.3125 335.265625 230.144531 341.078125 224.765625 346.714844 C 220.195312 351.949219 216.054688 357.53125 211.445312 362.738281 C 207.183594 368.457031 202.664062 373.949219 198.0625 379.394531 C 188.953125 391.988281 179.25 404.21875 168.582031 415.539062 C 162.085938 423.335938 155.644531 431.191406 147.953125 437.839844 C 160.683594 429.792969 173.378906 421.652344 185.09375 412.167969 Z M 317.863281 390.097656 C 317.441406 391.105469 316.992188 392.101562 316.558594 393.105469 C 317.125 392.074219 317.683594 391.039062 318.21875 389.988281 C 318.117188 390.042969 318 390.078125 317.863281 390.097656 Z M 383.332031 251.34375 C 378.480469 255.492188 374.703125 260.660156 370.570312 265.480469 C 364.125 272.839844 357.503906 280.164062 352.929688 288.894531 C 349.8125 294.664062 348.046875 301.019531 345.703125 307.113281 C 337.125 326.660156 333.074219 347.691406 326.546875 367.933594 C 324.519531 373.273438 322.5 378.621094 320.382812 383.929688 C 320.875 383.210938 321.351562 382.484375 321.742188 381.699219 C 323.414062 378.425781 325.484375 375.378906 326.644531 371.851562 C 329.113281 366.390625 331.796875 361.058594 333.777344 355.382812 C 336.375 349.074219 339.753906 343.113281 342.125 336.710938 C 342.25 336.390625 342.335938 335.796875 342.804688 335.859375 C 343.054688 335.875 343.191406 336.167969 343.085938 336.378906 C 338.871094 348.039062 333.46875 359.207031 328.734375 370.660156 C 327.285156 373.503906 326.011719 376.449219 324.636719 379.335938 C 325.144531 378.457031 325.648438 377.574219 326.132812 376.675781 C 329.726562 370.609375 333.671875 364.765625 337.535156 358.863281 C 340.128906 354.894531 342.007812 350.503906 344.730469 346.605469 C 346.0625 344.632812 347.402344 342.667969 348.59375 340.601562 C 352.003906 334.457031 356.578125 329.011719 359.851562 322.792969 C 367.5625 308.367188 373.808594 293.234375 380.167969 278.179688 C 386.328125 265.355469 392.886719 252.601562 401.226562 241.035156 C 401.726562 240.320312 402.238281 239.613281 402.746094 238.902344 C 397.0625 238.496094 386.890625 248.636719 383.328125 251.339844 Z M 333.234375 378.984375 C 339.628906 372.132812 346.652344 365.816406 352.351562 358.347656 C 361.632812 345.546875 371.320312 332.976562 378.566406 318.863281 C 382.949219 310.90625 387.878906 303.144531 390.902344 294.53125 C 394.554688 283.503906 399.105469 272.753906 402.242188 261.558594 C 403.507812 256.730469 404.445312 251.832031 405.179688 246.890625 C 405.453125 244.613281 406.101562 242.074219 405.039062 239.921875 C 404.871094 239.746094 404.6875 239.605469 404.496094 239.476562 C 404.378906 239.660156 404.265625 239.839844 404.183594 240.027344 C 399.980469 246.433594 395.476562 252.667969 391.792969 259.390625 C 386.832031 268.289062 382.890625 277.683594 378.417969 286.820312 C 374.269531 296.546875 370.671875 306.503906 365.882812 315.945312 C 357.605469 330.273438 348.996094 344.433594 339.949219 358.277344 C 335.964844 365.597656 331.613281 372.683594 326.851562 379.523438 C 325.472656 381.453125 324.289062 383.5 323.148438 385.570312 C 330.609375 377.679688 338.597656 370.1875 345.492188 361.757812 C 345.71875 361.449219 346.148438 361.203125 346.46875 361.511719 C 346.847656 361.886719 346.410156 362.351562 346.175781 362.648438 C 343.164062 366.242188 340.054688 369.769531 336.851562 373.207031 C 331.742188 378.277344 327.554688 384.332031 321.785156 388.679688 C 321.65625 388.730469 321.539062 388.738281 321.425781 388.722656 C 320.339844 390.707031 319.222656 392.671875 317.941406 394.542969 C 317.871094 394.695312 317.785156 394.835938 317.707031 394.984375 C 323.070312 389.839844 328.070312 384.328125 333.234375 378.984375 Z M 597.265625 216.484375 C 594.164062 216.378906 590.917969 216.75 587.9375 216.113281 C 587.550781 214.988281 590.707031 215.742188 591.386719 215.636719 C 593.890625 215.851562 596.417969 215.710938 598.878906 215.195312 C 599.6875 214.46875 600.421875 213.65625 601.109375 212.800781 C 598.820312 213.25 596.347656 213.238281 594.089844 213.613281 C 593.292969 213.519531 593.820312 212.679688 594.539062 212.8125 C 597.109375 212.59375 599.8125 212.492188 602.167969 211.363281 C 605.53125 206.410156 607.128906 199.960938 606.773438 194.171875 C 607.417969 183.839844 603.117188 170.988281 591.261719 169.902344 C 585.78125 169.589844 581.0625 173.507812 577.980469 177.699219 C 574.742188 182.722656 574.539062 188.976562 574.585938 194.777344 C 574.535156 197.492188 574.773438 200.269531 575.351562 202.953125 C 575.882812 204.355469 576.503906 205.726562 577.523438 206.820312 C 580.511719 209.25 583.785156 211.78125 587.523438 212.878906 C 588.085938 212.855469 588.792969 213.078125 588.3125 213.742188 C 588.195312 213.882812 588.066406 213.929688 587.902344 213.96875 C 584.851562 213.652344 582.234375 211.871094 579.660156 210.335938 C 578.617188 209.554688 577.679688 208.644531 576.800781 207.679688 C 578.492188 211.84375 581.242188 215.488281 585.339844 217.875 C 586.011719 218.25 586.851562 218.320312 587.621094 218.5 C 587.621094 218.5 587.621094 218.5 587.621094 218.496094 C 587.644531 218.503906 587.667969 218.511719 587.695312 218.519531 C 587.785156 218.539062 587.875 218.566406 587.960938 218.589844 C 588.042969 218.617188 588.125 218.648438 588.207031 218.675781 C 588.273438 218.703125 588.34375 218.730469 588.410156 218.757812 C 588.496094 218.796875 588.574219 218.847656 588.652344 218.894531 C 588.707031 218.929688 588.765625 218.957031 588.820312 218.996094 C 588.9375 219.082031 589.046875 219.183594 589.144531 219.300781 C 589.152344 219.308594 589.160156 219.3125 589.167969 219.324219 C 589.238281 219.359375 589.308594 219.394531 589.375 219.429688 C 592.378906 219.136719 595.011719 218.074219 597.261719 216.484375 Z M 702.324219 21.691406 C 694.777344 33.652344 687.601562 45.847656 682.078125 58.898438 C 679.074219 66.171875 675.742188 73.292969 672.234375 80.332031 C 661.929688 102.332031 659.5 126.546875 658.621094 150.625 C 658.8125 148.757812 659.070312 146.902344 659.515625 145.078125 C 660.589844 140.402344 661.375 135.660156 662.996094 131.128906 C 664.113281 128.050781 664.359375 124.6875 665.507812 121.648438 C 665.957031 121.164062 666.398438 121.621094 666.222656 122.113281 C 663.710938 131.558594 660.636719 140.894531 659.917969 150.703125 C 659.777344 152.976562 659.667969 155.246094 659.496094 157.515625 C 660.335938 153.089844 661.316406 148.695312 662.824219 144.429688 C 664.757812 135.539062 667.539062 126.910156 670.917969 118.464844 C 674.332031 107.664062 678.289062 97.070312 682.367188 86.507812 C 685.394531 78.300781 688.203125 70.058594 692.394531 62.351562 C 696.375 52.257812 701.179688 42.503906 705 32.335938 C 707.121094 25.074219 708.921875 17.710938 711.535156 10.589844 C 711.933594 9.367188 712.375 8.15625 712.765625 6.933594 C 707.632812 10.238281 705.363281 16.589844 702.324219 21.695312 Z M 687.539062 124.367188 C 695.375 112.566406 700.960938 99.421875 706.210938 86.304688 C 708.605469 79.726562 709.710938 72.773438 710.714844 65.871094 C 711.84375 59.140625 712.753906 52.394531 713.035156 45.574219 C 713.46875 38.5625 714.285156 31.578125 714.859375 24.574219 C 715.117188 21.414062 715.359375 18.253906 715.476562 15.082031 C 715.503906 12.324219 716.066406 9.335938 714.710938 6.792969 C 714.683594 6.738281 714.613281 6.589844 714.539062 6.441406 C 714.058594 7.984375 713.5625 9.519531 713.085938 11.066406 C 710.128906 23.542969 705.445312 35.515625 700.359375 47.261719 C 698.3125 51.339844 697.140625 55.773438 695.078125 59.835938 C 692.246094 65.171875 690.429688 70.953125 687.820312 76.386719 C 685.351562 82.058594 683.914062 88.128906 681.320312 93.753906 C 678.648438 99.390625 677.082031 105.46875 675.054688 111.351562 C 670.597656 123.074219 666.632812 134.992188 663.464844 147.136719 C 662.410156 152.609375 660.542969 157.964844 659.890625 163.492188 C 659.847656 165.222656 659.648438 166.941406 659.398438 168.660156 C 663.316406 157.578125 668.410156 146.878906 674.070312 136.589844 C 674.230469 135.964844 675.148438 135.738281 674.867188 136.539062 C 671.132812 143.191406 667.78125 150.085938 665.003906 157.195312 C 664.703125 158.132812 664.378906 159.070312 664.054688 160.003906 C 667.378906 153.710938 671.5 147.863281 675.90625 142.277344 C 680.171875 136.570312 683.785156 130.417969 687.535156 124.367188 Z M 836.683594 36.308594 C 831.425781 37.902344 826.691406 40.730469 821.800781 43.15625 C 811.445312 48.015625 801.5625 53.769531 792.351562 60.566406 C 785.789062 65.195312 779.667969 70.410156 773.792969 75.878906 C 764.761719 83.585938 756.386719 91.988281 749.945312 102.019531 C 746.804688 106.683594 743.558594 111.464844 741.308594 116.632812 C 743.226562 114.144531 744.96875 111.542969 746.703125 108.914062 C 749.964844 104.492188 753.023438 99.949219 756.433594 95.644531 C 756.585938 95.308594 757.148438 95.117188 757.21875 95.59375 C 752.816406 102.65625 748.207031 109.75 743.316406 116.574219 C 745.207031 114.9375 747.105469 113.308594 749.058594 111.742188 C 752.210938 108.355469 755.207031 104.792969 758.664062 101.699219 C 761.507812 99.414062 763.8125 96.566406 766.660156 94.285156 C 771.957031 89.882812 777.808594 86.175781 783.109375 81.796875 C 793.726562 72.421875 806.316406 65.675781 817.578125 57.15625 C 821.988281 52.796875 827.570312 49.855469 832.484375 46.109375 C 839.179688 42.710938 845.410156 38.585938 851.28125 33.898438 C 851.480469 33.75 851.679688 33.59375 851.878906 33.4375 C 846.761719 34.015625 841.632812 34.894531 836.683594 36.304688 Z M 750.566406 118.355469 C 759.023438 115.050781 766.898438 110.425781 774.730469 105.863281 C 783.640625 100.679688 793.082031 96.289062 800.894531 89.425781 C 806.785156 84.535156 812.519531 79.417969 817.871094 73.929688 C 823.4375 67.90625 828.566406 61.480469 834.222656 55.535156 C 840.515625 48.9375 846.710938 42.082031 851.816406 34.519531 C 851.621094 34.683594 851.421875 34.839844 851.242188 35.011719 C 841.027344 43.449219 828.839844 49.050781 818.941406 57.890625 C 812.453125 63.199219 805.132812 67.242188 798.25 71.976562 C 791.386719 76.898438 784.683594 82.039062 778.21875 87.46875 C 772.675781 91.570312 767.363281 95.949219 762.121094 100.417969 C 755.523438 107.488281 748.738281 114.59375 741.304688 120.75 C 743.101562 119.851562 744.894531 118.933594 746.496094 117.722656 C 748.128906 116.710938 750.308594 114.707031 751.976562 114.128906 C 753.308594 114.894531 750.886719 115.902344 750.34375 116.433594 C 746.773438 118.691406 743.222656 121.3125 739.238281 122.734375 C 739.203125 122.890625 739.148438 123.039062 739.113281 123.199219 C 739.917969 122.761719 740.730469 122.347656 741.546875 121.949219 C 741.539062 121.957031 741.53125 121.964844 741.527344 121.972656 C 744.449219 120.550781 747.460938 119.359375 750.566406 118.359375 Z M 827.398438 154.203125 C 820.535156 154.410156 813.652344 154.457031 806.8125 155.238281 C 795.902344 156.355469 785.667969 160.757812 775.046875 163.261719 C 758.738281 166.601562 743.175781 173.503906 729.476562 182.941406 C 723.472656 187.152344 717.859375 191.886719 712.082031 196.40625 C 714.738281 194.933594 717.394531 193.453125 719.855469 191.667969 C 723.664062 188.871094 727.207031 185.65625 731.570312 183.710938 C 731.933594 183.441406 732.605469 183.308594 732.660156 183.925781 C 732.675781 184.335938 732.25 184.472656 731.972656 184.671875 C 727.332031 187.8125 722.96875 191.34375 718.082031 194.128906 C 717.019531 194.886719 715.910156 195.570312 714.785156 196.238281 C 719.8125 193.757812 724.941406 191.484375 730.195312 189.484375 C 744.425781 182.699219 759.65625 178.25 774.949219 174.492188 C 782.671875 171.769531 790.925781 171.011719 798.691406 168.414062 C 803.910156 167.292969 809.234375 166.726562 814.320312 164.988281 C 823.800781 162.671875 833.566406 161.597656 842.988281 159.023438 C 847.203125 157.816406 851.054688 155.601562 855.472656 155.074219 C 855.511719 155.070312 855.550781 155.0625 855.589844 155.058594 C 853.082031 154.394531 850.390625 154.203125 847.886719 153.679688 C 841.058594 152.628906 834.230469 153.890625 827.398438 154.199219 Z M 716.007812 201.023438 C 726.191406 200.535156 736.109375 198.332031 746.167969 196.917969 C 756.359375 196.066406 766.550781 195.496094 776.476562 192.835938 C 784.957031 190.933594 793.667969 190.054688 801.949219 187.351562 C 812.53125 183.421875 823.191406 179.355469 833.066406 173.855469 C 841.8125 168.113281 851.121094 162.6875 859.550781 156.75 C 859.375 156.632812 859.191406 156.546875 859.011719 156.445312 C 858.003906 156.589844 856.996094 156.742188 855.992188 156.933594 C 848.074219 158.09375 840.828125 161.695312 832.894531 162.789062 C 824.582031 164.148438 816.574219 166.820312 808.214844 167.855469 C 796.914062 170.617188 785.605469 173.367188 774.25 175.917969 C 767.777344 178.050781 761.167969 179.726562 754.613281 181.574219 C 747.164062 183.785156 739.976562 186.785156 732.71875 189.542969 C 726.265625 193.050781 719.054688 194.972656 712.957031 199.117188 C 712.6875 199.273438 712.414062 199.414062 712.140625 199.5625 C 718.65625 197.175781 725.855469 196.691406 732.550781 194.695312 C 734.855469 193.964844 737.253906 194.234375 739.621094 193.984375 C 742.875 193.679688 746.050781 192.699219 749.292969 192.449219 C 750.171875 192.238281 751.054688 192.667969 750.390625 193.519531 C 743.886719 195.140625 737.003906 195.015625 730.492188 196.832031 C 723.910156 197.824219 717.59375 199.996094 711.164062 201.570312 C 712.777344 201.371094 714.390625 201.175781 716.007812 201.027344 Z M 606.332031 296.992188 C 607.46875 297.625 608.597656 298.269531 609.742188 298.890625 C 609.621094 298.632812 609.507812 298.386719 609.378906 298.207031 C 608.5625 296.304688 607.792969 294.128906 608.175781 292.046875 C 608.195312 291.277344 609.320312 291.070312 609.136719 291.972656 C 608.285156 294.144531 609.90625 296.488281 610.730469 298.476562 C 610.882812 298.828125 611.3125 299.332031 611.382812 299.742188 C 612.132812 300.121094 612.894531 300.484375 613.667969 300.8125 C 618.683594 302.574219 624.035156 303.320312 629.234375 304.394531 C 634.75 305.511719 640.640625 305.734375 645.953125 303.597656 C 653.234375 300.8125 659.066406 292.398438 657.476562 284.507812 C 655.757812 279.445312 652.097656 274.476562 646.78125 272.933594 C 639.089844 270.15625 630.835938 272.210938 623.558594 275.253906 C 618.875 277.066406 614.304688 279.21875 610.230469 282.191406 C 610.050781 282.316406 609.871094 282.445312 609.691406 282.578125 C 609.398438 283.394531 609.195312 284.25 609.09375 285.085938 C 609 285.925781 608.96875 286.769531 609 287.613281 C 609.089844 287.9375 608.90625 288.304688 608.5625 288.34375 C 608.210938 288.398438 608.074219 288.019531 608.109375 287.722656 C 608.007812 286.390625 608.039062 285.035156 608.226562 283.703125 C 605.535156 285.917969 603.132812 288.703125 602.347656 292.066406 C 602.28125 292.332031 602.234375 292.605469 602.191406 292.878906 C 602.183594 292.941406 602.167969 293 602.160156 293.0625 C 602.101562 293.121094 602.070312 293.179688 602.0625 293.238281 C 602.054688 293.296875 602.070312 293.359375 602.105469 293.425781 C 602.136719 293.472656 602.171875 293.511719 602.203125 293.554688 C 602.414062 293.851562 602.636719 294.132812 602.878906 294.394531 C 602.972656 294.503906 603.074219 294.601562 603.175781 294.707031 C 604.085938 295.628906 605.164062 296.375 606.332031 296.992188 Z M 688.527344 359.839844 C 685.519531 357.546875 681.824219 356.34375 678.265625 355.152344 C 670.390625 353.476562 663.800781 351.816406 656.054688 349.660156 C 646.898438 347.921875 637.585938 347.089844 628.355469 345.824219 C 616.757812 345.097656 605.148438 344.179688 593.535156 343.6875 C 586.347656 343.433594 579.253906 344.699219 572.15625 345.636719 C 564.234375 346.648438 556.207031 346.023438 548.292969 347.105469 C 534.582031 348.839844 521.402344 353.074219 508.625 358.296875 C 513.464844 356.949219 518.355469 355.761719 523.34375 355.496094 C 523.761719 355.679688 523.582031 356.296875 523.167969 356.351562 C 521.242188 356.703125 519.328125 357.132812 517.417969 357.59375 C 510.355469 358.933594 503.488281 361.285156 496.761719 363.675781 C 497.082031 363.660156 497.394531 363.628906 497.671875 363.535156 C 498.078125 363.496094 498.480469 363.484375 498.886719 363.460938 C 502.214844 362.625 505.667969 362.472656 509.074219 362.144531 C 515.238281 360.945312 521.46875 360.257812 527.695312 359.519531 C 542.507812 358.914062 559.078125 357.777344 573.84375 358.089844 C 578.425781 358.222656 582.980469 358.875 587.5625 358.507812 C 592.210938 358.804688 596.832031 359.21875 601.492188 358.761719 C 610.273438 359.300781 619.066406 359.652344 627.878906 359.65625 C 634.179688 359.996094 640.445312 358.953125 646.730469 359.988281 C 660.246094 360.320312 673.777344 360.265625 687.269531 361.402344 C 688.242188 361.441406 689.214844 361.476562 690.191406 361.507812 C 689.730469 360.886719 689.113281 360.300781 688.527344 359.839844 Z M 522.480469 368.167969 C 534.203125 370.65625 546.160156 371.617188 557.808594 374.507812 C 563.753906 375.6875 569.820312 375.691406 575.847656 376.109375 C 590.609375 377.941406 605.484375 377.765625 620.328125 378.203125 C 643.644531 377.171875 667.160156 373.273438 689.101562 365.199219 C 690.527344 364.691406 690.984375 363.9375 690.90625 363.121094 C 690.699219 363.109375 690.492188 363.09375 690.285156 363.09375 C 662.179688 361.503906 634.039062 361.65625 605.921875 360.808594 C 600.15625 360.746094 594.425781 359.980469 588.648438 360.453125 C 582.578125 360.078125 576.5 359.738281 570.410156 359.738281 C 562.023438 359.320312 553.664062 360.402344 545.273438 360.53125 C 533.550781 360.199219 522.09375 362.574219 510.464844 363.542969 C 509.746094 363.640625 509.03125 363.765625 508.316406 363.878906 C 510.207031 364.054688 512.097656 364.230469 513.984375 364.300781 C 522.085938 365.492188 530.308594 364.285156 538.457031 365.074219 C 540.285156 365.222656 542.148438 365.042969 543.953125 365.308594 C 544.554688 365.589844 544.269531 366.488281 543.679688 366.5625 C 537.375 365.757812 531.019531 366.496094 524.683594 366.304688 C 520.976562 366.175781 517.273438 366.179688 513.566406 366.367188 C 508 366.128906 502.4375 366.027344 496.871094 365.871094 C 496.253906 365.96875 495.640625 366.078125 495.023438 366.164062 C 494.847656 366.222656 494.667969 366.273438 494.492188 366.328125 C 503.824219 366.867188 513.195312 367.140625 522.476562 368.167969 Z M 505.546875 200.742188 C 500.761719 206.355469 497.148438 212.777344 493.667969 219.246094 C 489.886719 225.609375 485.949219 231.886719 482.800781 238.601562 C 476.011719 252.503906 470.480469 266.941406 465.480469 281.570312 C 461.941406 291.957031 460.15625 302.847656 456.613281 313.246094 C 454.546875 319.160156 452.957031 325.261719 451.011719 331.222656 C 451.546875 330.316406 452.097656 329.417969 452.683594 328.539062 C 457.496094 322.109375 460.578125 314.605469 464.535156 307.652344 C 469.480469 295.46875 476.757812 284.449219 481.984375 272.40625 C 487.023438 261.105469 491.414062 249.554688 495.574219 237.914062 C 500.015625 226.433594 504.289062 214.886719 507.660156 203.03125 C 508.078125 201.578125 508.511719 200.117188 508.886719 198.652344 C 508.890625 198.628906 508.898438 198.605469 508.902344 198.582031 C 507.410156 198.261719 506.390625 199.65625 505.546875 200.738281 Z M 473.558594 310.460938 C 478.753906 301.910156 484.898438 293.933594 489.222656 284.875 C 494.0625 275.550781 496.871094 265.355469 502.007812 256.167969 C 505.222656 249.277344 508.332031 242.183594 509.855469 234.707031 C 510.460938 231.039062 510.5625 227.300781 510.9375 223.605469 C 511.539062 216.78125 512.203125 209.894531 511.082031 203.089844 C 510.832031 201.839844 511.007812 199.09375 509.503906 198.714844 C 509.449219 199.472656 509.066406 200.214844 508.910156 200.976562 C 505.972656 212.832031 501.644531 224.230469 497.613281 235.726562 C 493.160156 247.515625 489.332031 259.550781 484.175781 271.074219 C 476.6875 286.933594 468.4375 302.441406 460.675781 318.164062 C 455.792969 326.261719 451.445312 334.625 446.867188 342.875 C 456.816406 332.984375 466.15625 322.425781 473.558594 310.457031 Z M 349.941406 419.257812 C 367.214844 417.191406 382.984375 408.34375 397.25 398.828125 C 401.691406 395.644531 405.671875 391.917969 409.523438 388.054688 C 401.671875 391.792969 393.726562 395.347656 385.976562 399.285156 C 376.941406 403.382812 367.375 406.171875 358.144531 409.792969 C 349.78125 412.9375 341.949219 417.335938 333.867188 421.125 C 339.21875 420.460938 344.554688 419.644531 349.941406 419.257812 Z M 461.21875 457.78125 C 449.210938 454.0625 436.832031 451.652344 424.464844 449.472656 C 413.667969 448.199219 402.789062 447.761719 391.9375 446.992188 C 377.414062 447.097656 362.886719 448.273438 348.410156 449.429688 C 340.304688 450.230469 332.609375 453.046875 324.757812 455.054688 C 325.382812 454.945312 326.007812 454.820312 326.625 454.644531 C 329.328125 454.328125 332.0625 454.527344 334.777344 454.304688 C 334.828125 454.0625 334.992188 453.839844 335.273438 453.757812 C 335.730469 453.625 336.179688 453.660156 336.558594 453.316406 C 337.75 452.910156 339.035156 452.859375 340.242188 452.460938 C 346.371094 452.082031 352.488281 451.285156 358.648438 451.820312 C 368.449219 451.363281 378.28125 450.699219 388.085938 451.445312 C 389.117188 451.253906 389.410156 452.5 388.410156 452.648438 C 378.980469 451.597656 369.609375 452.898438 360.183594 452.910156 C 354.636719 453.207031 349 453.160156 343.464844 453.726562 C 346.332031 453.699219 349.207031 453.8125 352.082031 453.9375 C 361.308594 453.601562 370.539062 454.019531 379.691406 455.265625 C 390.375 456.324219 401.171875 456.636719 411.679688 459.152344 C 418.929688 460.40625 426.179688 461.644531 433.355469 463.351562 C 437.875 464.0625 442.378906 464.699219 446.816406 465.925781 C 460.714844 468.144531 474.761719 469.378906 488.730469 471.207031 C 493.175781 471.5 497.519531 472.386719 501.84375 473.394531 C 493.339844 463.308594 473.089844 461.773438 461.21875 457.78125 Z M 397.960938 472.800781 C 417.160156 477.667969 436.914062 479.53125 456.664062 480.308594 C 463.441406 480.328125 470.15625 479.289062 476.894531 478.746094 C 485.78125 478.070312 494.757812 477.566406 503.472656 475.667969 C 503.429688 475.589844 503.375 475.515625 503.328125 475.441406 C 497.035156 474.335938 490.792969 472.953125 484.484375 471.980469 C 477.429688 471.417969 470.394531 470.617188 463.351562 469.929688 C 459.097656 469.90625 454.925781 469.324219 450.8125 468.242188 C 425.121094 463.363281 399.460938 457.703125 373.222656 456.832031 C 364.132812 456.246094 354.992188 455.355469 345.882812 455.824219 C 349.355469 456.121094 352.824219 456.289062 356.316406 456.425781 C 363.605469 457.15625 370.84375 458.273438 378.039062 459.667969 C 379.070312 460.015625 392.027344 461.164062 389.953125 462.648438 C 383.871094 462.1875 377.894531 460.304688 371.808594 459.5625 C 364.632812 458.195312 357.351562 457.933594 350.097656 457.183594 C 344.753906 457.046875 339.441406 456.316406 334.109375 456.101562 C 333.839844 456.128906 333.570312 456.164062 333.304688 456.195312 C 355.265625 459.679688 376.21875 468.191406 397.960938 472.800781 Z M 297.824219 544.910156 C 297.234375 544.316406 296.605469 543.761719 295.957031 543.226562 C 291.289062 539.710938 287.585938 534.976562 282.359375 532.222656 C 278.046875 529.972656 273.785156 527.625 269.546875 525.242188 C 262.621094 521.621094 255.628906 518.109375 248.609375 514.691406 C 244.011719 512.800781 239.167969 511.625 234.425781 510.175781 C 227.804688 508.148438 221.535156 505.109375 214.84375 503.265625 C 205.335938 500.507812 195.429688 499.484375 185.699219 497.738281 C 179.707031 497.117188 173.761719 496.113281 167.816406 495.101562 C 172.339844 496.246094 176.859375 497.390625 181.371094 498.5625 C 182.074219 498.878906 186.714844 499.414062 184.660156 500.539062 C 176.660156 498.375 168.558594 496.546875 160.332031 495.382812 C 151.664062 493.371094 142.722656 492.703125 133.839844 492.59375 C 141.1875 493.660156 148.5 495.101562 155.773438 496.585938 C 161.410156 497.996094 166.890625 499.929688 172.59375 501.066406 C 188.542969 506.109375 204.421875 511.328125 220.34375 516.457031 C 238.660156 521.820312 256.527344 528.5 274.335938 535.347656 C 282.285156 538.230469 290.390625 540.976562 297.742188 545.21875 C 297.78125 545.199219 297.820312 545.191406 297.859375 545.175781 C 298.09375 545.144531 298.082031 545.050781 297.824219 544.910156 Z M 173.984375 514.46875 C 183.070312 518.71875 192.355469 522.527344 201.28125 527.136719 C 210.292969 531.007812 219.804688 533.585938 229.011719 536.941406 C 238.632812 540.0625 248.6875 541.589844 258.566406 543.667969 C 269.65625 545.824219 280.996094 546.570312 292.273438 546.253906 C 293.558594 546.273438 294.824219 546.117188 296.050781 545.789062 C 292.9375 544.339844 289.953125 542.492188 286.722656 541.277344 C 279.132812 538.089844 271.265625 535.703125 263.503906 532.996094 C 255.882812 529.851562 248.199219 526.976562 240.339844 524.484375 C 229.996094 520.652344 219.171875 517.175781 208.582031 514.058594 C 200.160156 511.378906 191.699219 508.882812 183.253906 506.277344 C 175.746094 504.082031 168.316406 501.445312 160.640625 499.914062 C 156.671875 499.121094 152.742188 498.148438 148.8125 497.195312 C 151.519531 498.246094 154.40625 498.753906 157.125 499.769531 C 159.746094 500.878906 162.246094 502.261719 164.890625 503.320312 C 166.015625 503.871094 183.648438 511.121094 180.585938 511.851562 C 172.621094 508.695312 165.1875 504.082031 156.980469 501.503906 C 151.003906 499.074219 144.765625 497.519531 138.511719 496.039062 C 141.199219 497.050781 143.855469 498.140625 146.386719 499.515625 C 155.5 504.65625 164.929688 509.21875 173.984375 514.464844 Z M 590.410156 212.960938 C 590.21875 213.144531 590.175781 213.425781 590.347656 213.636719 C 590.4375 213.714844 590.542969 213.75 590.648438 213.75 C 590.78125 213.75 590.917969 213.691406 591.023438 213.585938 C 591.195312 213.410156 591.273438 213.101562 591.085938 212.910156 C 590.898438 212.714844 590.582031 212.789062 590.410156 212.960938 Z M 604.800781 291.765625 C 604.84375 292.296875 604.730469 294.597656 605.691406 293.863281 C 605.910156 293.171875 605.566406 292.382812 605.617188 291.648438 C 605.679688 291.265625 605.808594 290.605469 605.199219 290.675781 C 604.648438 290.785156 604.753906 291.355469 604.800781 291.765625 Z M 612.332031 292.777344 C 612.273438 293.1875 612.402344 293.609375 612.496094 294.007812 C 612.992188 295.96875 613.523438 297.925781 614.164062 299.84375 C 614.277344 300.15625 614.519531 300.550781 614.910156 300.492188 C 615.917969 300.28125 615.277344 299.257812 614.945312 298.710938 C 614.296875 296.839844 613.367188 294.910156 613.296875 292.914062 C 613.332031 292.332031 612.488281 292.246094 612.332031 292.777344 Z M 650.726562 280.089844 C 649.761719 281.429688 652.863281 285.347656 654.441406 285.128906 C 658.007812 284.492188 653.265625 277.347656 651.011719 278.589844 C 650.53125 278.917969 650.257812 279.625 650.726562 280.089844 Z M 653.5625 289.238281 C 653.117188 289.757812 653.101562 290.488281 653.589844 290.976562 C 653.8125 291.140625 654.0625 291.21875 654.3125 291.21875 C 654.683594 291.21875 655.046875 291.046875 655.316406 290.734375 C 655.730469 290.246094 655.8125 289.441406 655.285156 288.992188 C 654.761719 288.542969 653.980469 288.75 653.566406 289.238281 Z M 588.804688 173.039062 C 589.207031 173.628906 589.980469 173.652344 590.542969 173.992188 C 591.300781 174.628906 592.269531 174.988281 593.128906 175.472656 C 593.851562 175.875 594.796875 176.246094 595.542969 175.703125 C 598.21875 173.082031 591.1875 170.320312 589.273438 170.960938 C 588.53125 171.335938 588.296875 172.382812 588.804688 173.039062 Z M 587.75 188.003906 C 588.042969 187.996094 588.316406 187.859375 588.503906 187.636719 C 588.855469 187.230469 588.84375 186.582031 588.429688 186.222656 C 588.007812 185.863281 587.367188 185.960938 587.015625 186.367188 C 586.859375 186.554688 586.769531 186.792969 586.765625 187.035156 C 586.765625 187.335938 586.890625 187.574219 587.097656 187.78125 C 587.289062 187.917969 587.480469 188.003906 587.710938 188.003906 C 587.722656 188.003906 587.734375 188.003906 587.75 188.003906 Z M 599.210938 194.554688 C 599.09375 194.691406 599.027344 194.867188 599.023438 195.042969 C 599.019531 195.265625 599.109375 195.441406 599.261719 195.597656 C 599.398438 195.699219 599.539062 195.765625 599.714844 195.765625 C 599.71875 195.765625 599.726562 195.765625 599.734375 195.765625 C 599.945312 195.757812 600.15625 195.65625 600.292969 195.5 C 600.550781 195.203125 600.550781 194.730469 600.246094 194.464844 C 599.941406 194.195312 599.46875 194.261719 599.210938 194.554688 Z M 633.097656 290.5 C 632.816406 290.789062 632.832031 291.210938 633.089844 291.5 C 633.234375 291.621094 633.40625 291.679688 633.574219 291.679688 C 633.761719 291.679688 633.945312 291.605469 634.089844 291.453125 C 634.351562 291.179688 634.378906 290.722656 634.09375 290.453125 C 633.816406 290.183594 633.359375 290.226562 633.09375 290.5 Z M 532.132812 353.785156 C 532.386719 353.535156 532.304688 353.0625 531.945312 352.957031 C 531.699219 352.867188 531.4375 353.109375 531.21875 352.925781 C 530.75 352.679688 530.160156 353.1875 530.441406 353.679688 C 530.667969 354.082031 531.113281 353.746094 531.417969 353.917969 C 531.664062 353.988281 531.953125 353.988281 532.132812 353.785156 Z M 401.859375 466.804688 C 402.019531 466.875 402.199219 466.90625 402.375 466.898438 C 402.667969 466.863281 402.84375 466.507812 402.671875 466.261719 C 402.457031 465.988281 402.085938 466.21875 401.808594 466.140625 C 401.335938 466.140625 401.347656 466.945312 401.859375 466.804688 Z M 415.785156 468.636719 C 416.355469 468.546875 416.507812 467.59375 415.808594 467.664062 C 415.011719 467.820312 414.828125 469.292969 415.785156 468.636719 Z M 346.078125 330.089844 C 345.96875 329.867188 346.070312 329.632812 346.050781 329.394531 C 345.96875 328.875 345.242188 328.925781 345.046875 329.34375 C 344.960938 329.925781 344.511719 330.542969 344.746094 331.121094 C 344.957031 331.492188 345.480469 331.53125 345.800781 331.292969 C 346.175781 331.042969 346.382812 330.46875 346.074219 330.089844 Z M 174.011719 393.589844 C 174.292969 392.820312 173.335938 392.683594 172.988281 393.253906 C 172.363281 393.78125 172.066406 394.621094 171.398438 395.085938 C 170.597656 395.519531 170.226562 396.261719 171.003906 396.347656 C 172.179688 395.703125 173.3125 394.753906 174.011719 393.589844 Z M 160.042969 427.808594 C 159.917969 428.226562 160.296875 428.664062 160.730469 428.570312 C 165.3125 426.089844 169.128906 422.46875 172.507812 418.507812 C 175.085938 416.015625 177.308594 413.261719 179.414062 410.375 C 180.332031 409.027344 181.71875 407.828125 182.375 406.386719 C 182.15625 405.761719 181.570312 406.203125 181.375 406.597656 C 178.027344 410.777344 174.617188 414.933594 170.855469 418.742188 C 167.738281 421.433594 164.597656 424.101562 161.476562 426.761719 C 161.09375 427.246094 160.265625 427.191406 160.042969 427.8125 Z M 188.070312 515.835938 C 188.167969 516 189.074219 516.457031 189.445312 516.578125 C 190.398438 517.128906 191.519531 517.78125 192.601562 517.863281 C 192.96875 517.691406 192.894531 517.164062 192.511719 517.0625 C 191.339844 516.335938 190.105469 515.574219 188.722656 515.425781 C 188.421875 515.152344 187.90625 515.433594 188.070312 515.832031 Z M 236.171875 531.269531 C 235.847656 531.605469 235.832031 532.09375 236.136719 532.4375 C 236.300781 532.570312 236.488281 532.636719 236.675781 532.636719 C 236.902344 532.636719 237.128906 532.542969 237.304688 532.363281 C 237.601562 532.054688 237.667969 531.515625 237.339844 531.195312 C 237.007812 530.875 236.476562 530.957031 236.171875 531.273438 Z M 258.761719 528.464844 C 259.050781 528.140625 259.097656 527.601562 258.75 527.292969 C 258.40625 526.988281 257.878906 527.09375 257.589844 527.421875 C 257.285156 527.765625 257.28125 528.257812 257.597656 528.585938 C 257.757812 528.707031 257.9375 528.765625 258.113281 528.765625 C 258.351562 528.765625 258.585938 528.664062 258.761719 528.464844 Z M 206.59375 349.777344 C 206.746094 349.628906 206.773438 349.367188 206.617188 349.207031 C 206.460938 349.042969 206.195312 349.074219 206.046875 349.226562 C 205.972656 349.300781 205.929688 349.390625 205.914062 349.492188 C 205.902344 349.613281 205.941406 349.710938 206.019531 349.800781 C 206.101562 349.871094 206.195312 349.90625 206.292969 349.90625 C 206.398438 349.90625 206.507812 349.863281 206.59375 349.777344 Z M 229.871094 352.929688 C 229.605469 353.210938 229.421875 353.578125 229.386719 353.964844 C 229.339844 354.4375 229.507812 354.828125 229.8125 355.179688 C 230.105469 355.421875 230.414062 355.582031 230.804688 355.585938 C 230.816406 355.585938 230.828125 355.585938 230.839844 355.585938 C 231.296875 355.585938 231.738281 355.382812 232.054688 355.058594 C 232.644531 354.453125 232.75 353.429688 232.121094 352.8125 C 231.488281 352.195312 230.46875 352.328125 229.875 352.929688 Z M 218.191406 372.757812 C 219.042969 372.664062 219.402344 371.082031 218.28125 371.210938 C 217.460938 371.316406 217.105469 372.851562 218.191406 372.757812 Z M 186.574219 371.839844 C 186.832031 371.605469 186.957031 371.167969 186.703125 370.890625 C 186.445312 370.613281 186.003906 370.699219 185.75 370.929688 C 185.476562 371.179688 185.394531 371.574219 185.621094 371.878906 C 185.75 371.996094 185.90625 372.046875 186.058594 372.046875 C 186.242188 372.046875 186.425781 371.972656 186.574219 371.839844 Z M 456.859375 461.792969 C 456.6875 461.285156 456.050781 461.171875 455.59375 461.320312 C 455.101562 461.496094 454.753906 461.949219 454.882812 462.472656 C 455.042969 462.835938 455.386719 463.007812 455.75 463.007812 C 455.882812 463.007812 456.015625 462.984375 456.148438 462.941406 C 456.605469 462.785156 457.035156 462.300781 456.855469 461.792969 Z M 364.371094 284.285156 C 364.21875 284.035156 363.886719 283.984375 363.644531 284.132812 C 363.386719 284.289062 363.316406 284.59375 363.449219 284.851562 C 363.558594 285.003906 363.722656 285.089844 363.894531 285.089844 C 363.988281 285.089844 364.089844 285.0625 364.179688 285.003906 C 364.417969 284.859375 364.527344 284.535156 364.371094 284.285156 Z M 382.679688 302.269531 C 382.578125 302.515625 382.601562 302.75 382.707031 302.992188 C 382.824219 303.175781 382.960938 303.308594 383.167969 303.386719 C 383.261719 303.421875 383.367188 303.4375 383.46875 303.4375 C 383.621094 303.4375 383.773438 303.398438 383.914062 303.324219 C 384.332031 303.109375 384.546875 302.574219 384.316406 302.144531 C 384.089844 301.707031 383.53125 301.585938 383.109375 301.808594 C 382.917969 301.910156 382.765625 302.074219 382.679688 302.269531 Z M 483.621094 256.324219 C 483.457031 256.0625 483.09375 255.984375 482.832031 256.152344 C 482.714844 256.222656 482.625 256.339844 482.582031 256.472656 C 482.53125 256.640625 482.5625 256.792969 482.644531 256.941406 C 482.726562 257.054688 482.828125 257.144531 482.964844 257.1875 C 483.015625 257.203125 483.066406 257.210938 483.121094 257.210938 C 483.234375 257.210938 483.347656 257.179688 483.441406 257.117188 C 483.707031 256.953125 483.792969 256.59375 483.625 256.324219 Z M 493.273438 265.964844 C 493.136719 266.390625 493.21875 266.792969 493.414062 267.183594 C 493.628906 267.476562 493.871094 267.703125 494.226562 267.816406 C 494.367188 267.859375 494.515625 267.878906 494.664062 267.878906 C 494.941406 267.878906 495.21875 267.804688 495.453125 267.65625 C 496.140625 267.238281 496.382812 266.320312 495.960938 265.625 C 495.542969 264.933594 494.609375 264.730469 493.921875 265.148438 C 493.621094 265.335938 493.386719 265.625 493.273438 265.964844 Z M 473.429688 282.21875 C 473.148438 281.707031 472.484375 281.523438 471.976562 281.804688 C 471.75 281.925781 471.574219 282.128906 471.480469 282.367188 C 471.367188 282.667969 471.410156 282.960938 471.535156 283.246094 C 471.679688 283.46875 471.847656 283.644531 472.101562 283.734375 C 472.21875 283.777344 472.34375 283.796875 472.46875 283.796875 C 472.648438 283.796875 472.828125 283.753906 472.988281 283.667969 C 473.496094 283.386719 473.707031 282.734375 473.429688 282.222656 Z M 584.523438 349.214844 C 584.253906 348.535156 583.386719 348.425781 582.78125 348.664062 C 582.132812 348.921875 581.6875 349.554688 581.894531 350.257812 C 582.125 350.710938 582.5625 350.925781 583.03125 350.925781 C 583.230469 350.925781 583.4375 350.886719 583.632812 350.808594 C 584.238281 350.566406 584.792969 349.890625 584.523438 349.214844 Z M 616.863281 368.464844 C 616.714844 368.546875 616.621094 368.707031 616.695312 368.871094 C 616.75 368.960938 616.84375 369 616.941406 369 C 617.003906 369 617.0625 368.984375 617.121094 368.957031 C 617.257812 368.878906 617.375 368.707031 617.292969 368.550781 C 617.210938 368.398438 616.996094 368.394531 616.863281 368.464844 Z M 651.726562 357.226562 C 651.605469 356.945312 651.261719 356.875 650.996094 356.984375 C 650.722656 357.101562 650.574219 357.386719 650.671875 357.675781 C 650.773438 357.863281 650.957031 357.964844 651.15625 357.964844 C 651.234375 357.964844 651.316406 357.945312 651.398438 357.914062 C 651.65625 357.804688 651.84375 357.503906 651.726562 357.226562 Z M 620.347656 373.226562 C 620.425781 373.414062 620.601562 373.507812 620.789062 373.507812 C 620.851562 373.507812 620.914062 373.496094 620.972656 373.476562 C 621.207031 373.40625 621.421875 373.160156 621.335938 372.90625 C 621.253906 372.648438 620.9375 372.582031 620.707031 372.652344 C 620.457031 372.734375 620.285156 372.964844 620.347656 373.226562 Z M 604.34375 372.046875 C 604.363281 373.191406 605.398438 373.859375 606.460938 373.941406 C 606.53125 373.949219 606.601562 373.949219 606.675781 373.949219 C 607.621094 373.949219 608.769531 373.464844 608.847656 372.410156 C 608.941406 371.277344 607.707031 370.59375 606.734375 370.515625 C 605.671875 370.429688 604.539062 370.925781 604.34375 372.050781 Z M 774.300781 166.796875 C 774.074219 166.15625 773.296875 165.96875 772.703125 166.183594 C 772.074219 166.410156 771.683594 167.015625 771.863281 167.671875 C 772.074219 168.136719 772.503906 168.371094 772.972656 168.371094 C 773.132812 168.371094 773.296875 168.34375 773.460938 168.285156 C 774.046875 168.074219 774.535156 167.441406 774.300781 166.796875 Z M 793.503906 177.238281 C 793.65625 177.511719 793.925781 177.648438 794.214844 177.648438 C 794.347656 177.648438 794.480469 177.621094 794.609375 177.5625 C 794.996094 177.382812 795.28125 176.929688 795.09375 176.511719 C 794.902344 176.09375 794.371094 176.011719 793.984375 176.191406 C 793.574219 176.378906 793.351562 176.804688 793.503906 177.238281 Z M 799.398438 63.769531 C 799.089844 63.085938 798.246094 62.832031 797.578125 63.132812 C 797.28125 63.265625 797.023438 63.511719 796.882812 63.808594 C 796.707031 64.175781 796.722656 64.546875 796.855469 64.921875 C 797.019531 65.214844 797.21875 65.445312 797.53125 65.574219 C 797.707031 65.652344 797.894531 65.6875 798.085938 65.6875 C 798.289062 65.6875 798.492188 65.644531 798.679688 65.5625 C 799.351562 65.257812 799.710938 64.453125 799.402344 63.769531 Z M 800.511719 82.476562 C 800.363281 82.746094 800.363281 83.019531 800.449219 83.304688 C 800.5625 83.527344 800.703125 83.699219 800.929688 83.808594 C 801.074219 83.871094 801.226562 83.902344 801.378906 83.902344 C 801.523438 83.902344 801.667969 83.878906 801.800781 83.824219 C 802.308594 83.621094 802.636719 83.039062 802.425781 82.511719 C 802.214844 81.984375 801.574219 81.792969 801.070312 81.996094 C 800.835938 82.085938 800.632812 82.257812 800.507812 82.476562 Z M 739.597656 180.675781 C 740.210938 180 739.257812 179.140625 738.648438 179.8125 C 738.023438 180.460938 739.015625 181.355469 739.597656 180.675781 Z M 669.128906 114.453125 C 669.539062 114.15625 670.542969 111.242188 669.480469 111.449219 C 668.863281 111.691406 668.804688 112.558594 668.589844 113.113281 C 668.535156 113.46875 668.285156 113.789062 668.320312 114.15625 C 668.375 114.550781 668.832031 114.667969 669.128906 114.453125 Z M 759.132812 108.972656 C 758.9375 109.230469 759.152344 109.65625 759.484375 109.589844 C 761 108.796875 762.492188 107.902344 763.894531 106.890625 C 764.167969 106.601562 764.726562 106.539062 764.824219 106.125 C 764.808594 105.949219 764.675781 105.8125 764.488281 105.867188 C 762.832031 106.625 761.363281 107.703125 759.816406 108.632812 C 759.570312 108.714844 759.277344 108.730469 759.132812 108.972656 Z M 818.320312 48.835938 C 816.992188 49.136719 817.699219 51.113281 818.898438 50.902344 C 820.203125 50.59375 819.519531 48.621094 818.320312 48.835938 Z M 698.21875 75.386719 C 698.011719 75.613281 697.929688 75.917969 697.949219 76.222656 C 697.984375 76.648438 698.214844 76.988281 698.503906 77.28125 C 698.777344 77.507812 699.066406 77.675781 699.429688 77.71875 C 699.480469 77.726562 699.53125 77.730469 699.582031 77.730469 C 699.890625 77.730469 700.203125 77.621094 700.421875 77.378906 C 700.933594 76.8125 700.644531 75.945312 700.136719 75.484375 C 699.625 75.019531 698.730469 74.816406 698.21875 75.386719 Z M 684.496094 71.359375 C 683.910156 72.160156 685.457031 73.167969 686.15625 73.109375 C 687.710938 72.554688 685.246094 70.59375 684.496094 71.359375 Z M 700.476562 53.652344 C 700.78125 53.652344 701.085938 53.539062 701.277344 53.292969 C 701.695312 52.761719 701.386719 52.015625 700.914062 51.640625 C 700.4375 51.265625 699.640625 51.136719 699.21875 51.667969 C 699.050781 51.878906 698.996094 52.152344 699.039062 52.421875 C 699.085938 52.792969 699.3125 53.078125 699.582031 53.324219 C 699.839844 53.503906 700.101562 53.636719 700.417969 53.652344 C 700.4375 53.652344 700.457031 53.652344 700.476562 53.652344 Z M 820.167969 170.132812 C 819.789062 170.59375 819.925781 171.203125 820.332031 171.585938 C 820.542969 171.726562 820.753906 171.820312 821.003906 171.820312 C 821.011719 171.820312 821.015625 171.820312 821.023438 171.820312 C 821.324219 171.808594 821.601562 171.671875 821.792969 171.445312 C 822.144531 171 822.054688 170.34375 821.617188 169.992188 C 821.1875 169.640625 820.523438 169.695312 820.167969 170.132812 Z M 482.351562 252.105469 C 483.1875 251.503906 482.179688 250.335938 481.484375 251.117188 C 480.878906 251.65625 481.746094 252.625 482.351562 252.105469 Z M 357.640625 302.15625 C 358.011719 301.859375 357.898438 301.289062 357.628906 300.960938 C 357.363281 300.636719 356.828125 300.414062 356.457031 300.714844 C 356.3125 300.832031 356.234375 301.015625 356.21875 301.203125 C 356.203125 301.472656 356.316406 301.699219 356.46875 301.914062 C 356.613281 302.078125 356.78125 302.207031 357 302.269531 C 357.074219 302.289062 357.148438 302.300781 357.222656 302.300781 C 357.371094 302.300781 357.519531 302.253906 357.640625 302.15625 Z M 357.640625 302.15625 " fill-opacity="1" fill-rule="nonzero"/></g></g></g></g></g></g></g></svg>