<svg xmlns="http://www.w3.org/2000/svg" xmlns:xlink="http://www.w3.org/1999/xlink" width="1152" zoomAndPan="magnify" viewBox="0 0 864 251.999989" height="336" preserveAspectRatio="xMidYMid meet" version="1.0"><defs><filter x="0%" y="0%" width="100%" height="100%" id="e1084bdb96"><feColorMatrix values="0 0 0 0 1 0 0 0 0 1 0 0 0 0 1 0 0 0 1 0" color-interpolation-filters="sRGB"/></filter><mask id="b7aac13030"><g filter="url(#e1084bdb96)"><rect x="-86.4" width="1036.8" fill="#000000" y="-25.199999" height="302.399987" fill-opacity="0.24"/></g></mask><clipPath id="717006f510"><path d="M 0 1 L 864 1 L 864 247.398438 L 0 247.398438 Z M 0 1 " clip-rule="nonzero"/></clipPath><clipPath id="c00a45a843"><rect x="0" width="864" y="0" height="248"/></clipPath></defs><g mask="url(#b7aac13030)"><g transform="matrix(1, 0, 0, 1, 0, 1)"><g clip-path="url(#c00a45a843)"><g clip-path="url(#717006f510)"><path fill="#a8af8e" d="M 267.859375 3.238281 C 266.539062 7.1875 271.242188 12.195312 273.667969 15.230469 C 278.390625 20.28125 282.9375 25.519531 288.214844 30.007812 C 296.890625 36.816406 306.433594 42.433594 315.4375 48.792969 C 324.183594 54.558594 332.316406 61.160156 340.855469 67.207031 C 352.015625 74.066406 363.574219 80.554688 375.890625 85.085938 C 383.335938 87.992188 391.335938 89.003906 398.742188 92.011719 C 404.878906 97.890625 411.519531 103.359375 419.089844 107.351562 C 431.265625 114.902344 444.128906 121.238281 457.835938 125.425781 C 453.730469 125.484375 449.628906 125.550781 445.527344 125.523438 C 442.984375 125.5 440.445312 125.421875 437.910156 125.445312 C 435.511719 125.460938 433.117188 125.496094 430.722656 125.539062 C 425.949219 125.625 421.1875 125.679688 416.414062 125.59375 C 411.585938 125.503906 406.777344 125.164062 401.96875 124.871094 C 398.039062 124.632812 394.121094 124.53125 390.1875 124.527344 C 385.035156 124.507812 379.894531 124.871094 374.753906 125.050781 C 370.09375 125.214844 365.4375 125.425781 360.777344 125.5 C 360.609375 125.5 360.441406 125.496094 360.273438 125.496094 C 355.171875 124.089844 349.886719 123.394531 344.671875 122.519531 C 338.777344 121.421875 332.953125 119.957031 327.113281 118.609375 C 317.601562 116.535156 308.164062 113.960938 299.265625 109.9375 C 292.285156 106.625 285.40625 103.070312 278.605469 99.382812 C 278.945312 97.6875 278.765625 95.363281 278.847656 94.417969 C 280.066406 84.503906 275.148438 75.4375 270.539062 67.015625 C 264.308594 55.761719 251.867188 49.769531 239.625 47.558594 C 228.992188 45.242188 217.425781 50.804688 212.078125 60.152344 C 206.859375 72.320312 215.070312 89.679688 224.328125 97.972656 C 232.035156 104.828125 242.253906 107.910156 252.039062 110.527344 C 261.324219 113 268.808594 110.878906 274.566406 104.070312 C 282.703125 108.773438 291.679688 112.203125 300.429688 115.414062 C 308.148438 118.453125 315.792969 121.910156 323.757812 124.140625 C 321.917969 124.109375 320.078125 124.09375 318.230469 124.125 C 313.488281 124.195312 308.746094 124.53125 304.007812 124.746094 C 299.363281 124.945312 294.714844 124.957031 290.066406 124.886719 C 286.085938 124.816406 282.113281 124.652344 278.136719 124.582031 C 273.554688 124.5 268.976562 124.628906 264.398438 124.652344 C 260.019531 124.667969 255.636719 124.601562 251.261719 124.539062 C 246.433594 124.464844 241.609375 124.394531 236.789062 124.449219 C 233.308594 124.488281 229.828125 124.679688 226.351562 124.765625 C 222.582031 124.851562 218.820312 124.929688 215.054688 124.914062 C 214.96875 124.914062 214.882812 124.914062 214.796875 124.914062 C 214.136719 124.90625 213.46875 124.902344 212.808594 124.882812 C 212.789062 124.875 212.769531 124.875 212.75 124.867188 C 212.675781 124.839844 212.605469 124.808594 212.527344 124.785156 C 212.222656 124.5625 211.761719 124.472656 211.394531 124.457031 C 209.863281 124.40625 208.644531 123.402344 207.296875 122.800781 C 202.472656 120.640625 197.738281 118.3125 193.496094 115.132812 C 187.769531 111.195312 181.636719 107.882812 175.933594 103.910156 C 167.644531 98.074219 160.382812 90.84375 151.703125 85.535156 C 143.21875 79.945312 133.921875 75.835938 124.535156 72.046875 C 110.796875 65.675781 96.546875 60.714844 81.8125 57.265625 C 68.570312 53.335938 55.109375 50.097656 41.449219 48.023438 C 35.046875 46.78125 28.699219 45.328125 22.234375 44.445312 C 17.695312 43.5 9.535156 43.359375 10.964844 50.140625 C 12.8125 56.449219 19.386719 59.691406 24.4375 63.210938 C 41.113281 74.917969 60.789062 81.351562 79.921875 87.847656 C 86.351562 90.019531 92.757812 92.265625 99.027344 94.878906 C 108.523438 98.296875 118.359375 100.625 128.089844 103.269531 C 138.28125 105.863281 148.132812 109.582031 158.160156 112.714844 C 155.308594 112.363281 152.445312 112.089844 149.570312 111.929688 C 127.136719 111.804688 104.664062 111.957031 82.316406 114.21875 C 69.988281 115.96875 57.730469 118.570312 45.742188 121.949219 C 37.730469 124.398438 30.160156 128.007812 22.691406 131.765625 C 14.351562 135.242188 7.160156 141.09375 3.046875 149.253906 C 2.589844 149.796875 2.285156 150.378906 2.101562 150.980469 C 1.6875 151.011719 1.269531 151.039062 0.855469 151.070312 C 0.402344 151.1875 -0.0664062 151.574219 0.0507812 152.097656 C 0.167969 152.632812 0.761719 152.828125 1.25 152.828125 C 1.472656 152.816406 1.695312 152.800781 1.921875 152.789062 C 2.085938 154.632812 3.253906 156.402344 4.964844 157.402344 C 8.621094 159.636719 13.113281 159.203125 17.222656 159.4375 C 28.300781 159.546875 39.394531 159.742188 50.464844 159.347656 C 73.695312 158.296875 96.644531 153.429688 119.078125 147.515625 C 133.582031 143.0625 148.050781 138.53125 162.777344 134.847656 C 170.464844 132.746094 178.140625 130.539062 186.089844 129.722656 C 189.703125 129.417969 193.335938 128.875 196.964844 128.445312 C 197.230469 128.859375 197.648438 129.164062 198.136719 129.328125 C 198.738281 129.523438 199.433594 129.488281 200.066406 129.5 C 200.597656 129.507812 201.128906 129.523438 201.660156 129.550781 C 202.722656 129.601562 203.796875 129.65625 204.859375 129.769531 C 206.316406 129.917969 207.847656 130.222656 209.253906 129.640625 C 209.539062 129.523438 209.800781 129.375 210.054688 129.203125 L 210.328125 129.203125 C 211.121094 129.191406 211.914062 129.179688 212.710938 129.179688 C 214.523438 129.175781 216.339844 129.210938 218.160156 129.253906 C 218.476562 129.257812 218.792969 129.273438 219.109375 129.28125 C 221.042969 129.324219 222.972656 129.378906 224.90625 129.460938 C 226.457031 129.519531 228.007812 129.582031 229.558594 129.65625 C 233.558594 129.839844 237.546875 129.980469 241.558594 130.003906 C 251.015625 130.042969 260.460938 129.914062 269.914062 130.214844 C 278.449219 130.484375 286.992188 129.976562 295.53125 130.152344 C 303.152344 130.3125 310.75 131.066406 318.371094 131.25 C 317.960938 131.34375 317.550781 131.429688 317.144531 131.523438 C 300.21875 134.722656 283.949219 140.585938 268.121094 147.265625 C 265.246094 145.347656 261.9375 144.1875 258.675781 143.070312 C 250.050781 139.769531 240.746094 138.453125 231.710938 140.816406 C 222.382812 142.707031 213.089844 146.691406 207.042969 154.308594 C 201.753906 160.1875 197.964844 167.941406 199.917969 175.96875 C 202.84375 192.753906 218.4375 203.582031 232.535156 199.183594 C 235.332031 203.324219 239.597656 206.625 244.054688 208.550781 C 255.414062 213.734375 269.699219 213.742188 278.523438 203.867188 C 284.597656 197.492188 290.742188 189.960938 291.886719 180.949219 C 292.074219 177.199219 291.734375 172.960938 290.640625 169.03125 C 305.679688 159.894531 320.707031 150.710938 336.765625 143.441406 C 345.660156 139.613281 355.140625 137.460938 364.355469 134.574219 C 367.449219 133.59375 370.558594 132.636719 373.765625 132.078125 C 375.027344 131.695312 376.871094 131.765625 378.234375 131.246094 C 378.980469 131.285156 379.726562 131.328125 380.472656 131.371094 C 384.628906 131.59375 388.808594 131.773438 392.976562 131.695312 C 397.144531 131.609375 401.300781 131.371094 405.46875 131.191406 C 410.582031 130.96875 415.703125 130.851562 420.828125 130.933594 C 425.609375 131.011719 430.386719 131.203125 435.164062 131.308594 C 439.863281 131.402344 444.570312 131.289062 449.277344 131.402344 C 454.121094 131.515625 458.972656 131.703125 463.824219 131.75 C 468.617188 131.789062 473.40625 131.703125 478.203125 131.503906 C 483.054688 131.296875 487.894531 131.082031 492.75 131.105469 C 497.9375 131.128906 503.105469 131.441406 508.289062 131.703125 C 512.71875 131.921875 517.160156 132.070312 521.605469 132.15625 C 529.105469 132.296875 536.605469 132.089844 544.105469 132.082031 C 538.488281 133.484375 532.96875 135.25 527.570312 137.378906 C 514.726562 142.230469 501.261719 145.511719 489.023438 151.859375 C 484.347656 154.125 480.003906 156.984375 475.792969 159.957031 C 471.507812 161.304688 467.175781 162.496094 462.792969 163.46875 C 449 165.761719 435.386719 168.792969 421.925781 172.589844 C 408.066406 175.34375 395.203125 181.183594 382.984375 188.160156 C 371.082031 195.15625 358.285156 201.191406 347.90625 210.417969 C 340 217.832031 330.988281 224.324219 324.960938 233.476562 C 317.988281 243.191406 323.871094 249.269531 334.46875 246.488281 C 353.191406 242.390625 372.011719 237.433594 389.417969 229.261719 C 401.566406 222.816406 414.273438 217.089844 425.117188 208.5 C 433.574219 201.375 441.894531 194.089844 450.382812 186.992188 C 457.941406 179.929688 465.449219 172.773438 474.019531 166.921875 C 490.683594 155.421875 509.5 146.921875 528.949219 141.367188 C 537.65625 139.269531 546.140625 136.492188 554.617188 133.625 C 556.136719 133.292969 557.621094 132.875 559.0625 132.355469 C 560.414062 132.394531 561.765625 132.441406 563.121094 132.460938 C 567.203125 132.515625 571.289062 132.484375 575.375 132.382812 C 584.441406 132.152344 593.511719 131.519531 602.589844 131.820312 C 607.199219 131.972656 611.808594 132.3125 616.417969 132.519531 C 621.050781 132.722656 625.683594 132.855469 630.324219 132.902344 C 635.296875 132.945312 640.269531 132.816406 645.25 132.777344 C 649.4375 132.738281 653.609375 132.789062 657.796875 132.957031 C 662.886719 133.160156 667.988281 133.375 673.085938 133.335938 C 677.570312 133.300781 682.046875 133.160156 686.527344 132.992188 C 691.867188 132.785156 697.203125 132.386719 702.546875 132.402344 C 704.976562 132.410156 707.402344 132.402344 709.832031 132.503906 C 710.960938 132.546875 712.085938 132.605469 713.214844 132.660156 C 694.03125 136.714844 676.136719 145.066406 658.066406 152.605469 C 653.800781 154.304688 649.507812 155.945312 645.261719 157.6875 C 638.003906 159.023438 630.617188 159.570312 623.320312 160.738281 C 613.980469 162.109375 604.625 163.480469 595.269531 164.761719 C 578.765625 167.671875 563.210938 174.375 548.414062 182.066406 C 534.582031 188.871094 520.941406 196.222656 509.332031 206.5 C 501.144531 212.992188 492.847656 219.65625 487.410156 228.742188 C 485.523438 232.28125 481.328125 237.671875 484.089844 241.605469 C 489.390625 245.960938 499.910156 240.226562 506.011719 238.800781 C 515.601562 235.800781 525.007812 232.273438 534.277344 228.425781 C 544.542969 224.335938 555.046875 220.761719 564.777344 215.46875 C 574.226562 210.621094 582.925781 204.515625 591.859375 198.816406 C 604.511719 191.339844 614.996094 180.890625 626.996094 172.546875 C 643.550781 162.617188 661.328125 154.828125 679.601562 148.679688 C 692.109375 144.332031 704.523438 139.660156 717.179688 135.78125 C 721.660156 134.449219 726.417969 134.390625 730.921875 133.292969 C 735.890625 133.378906 740.859375 133.375 745.824219 133.246094 C 746.050781 133.238281 746.273438 133.234375 746.5 133.226562 C 747.726562 133.402344 748.957031 133.5625 750.191406 133.683594 C 752.171875 133.878906 755.5625 135.230469 756.632812 132.933594 C 757.492188 132.90625 758.355469 132.886719 759.214844 132.847656 C 763.746094 132.644531 768.265625 132.441406 772.808594 132.472656 C 777.902344 132.503906 782.976562 132.917969 788.0625 133.132812 C 792.292969 133.304688 796.511719 133.277344 800.746094 133.148438 C 803.519531 133.0625 806.289062 132.847656 809.066406 132.773438 C 811.410156 132.707031 813.761719 132.746094 816.109375 132.792969 C 818.601562 132.835938 821.09375 132.914062 823.589844 132.914062 C 826.128906 132.910156 828.660156 132.816406 831.195312 132.691406 C 833.882812 132.550781 836.554688 132.351562 839.246094 132.300781 C 841.339844 132.257812 843.433594 132.257812 845.53125 132.316406 C 849.445312 132.429688 853.363281 132.390625 857.28125 132.347656 C 858.46875 132.328125 859.652344 132.285156 860.839844 132.273438 C 861.253906 132.269531 861.671875 132.316406 862.085938 132.3125 C 863.003906 132.289062 863.867188 131.613281 864 130.699219 C 864 129.300781 862.4375 129.605469 861.503906 129.582031 C 857.8125 129.488281 854.113281 129.347656 850.421875 129.3125 C 847.617188 129.285156 844.816406 129.40625 842.011719 129.355469 C 839.585938 129.308594 837.167969 129.167969 834.75 128.988281 C 832.25 128.796875 829.746094 128.617188 827.242188 128.566406 C 824.28125 128.507812 821.328125 128.472656 818.367188 128.507812 C 815.351562 128.539062 812.335938 128.574219 809.328125 128.40625 C 806.226562 128.226562 803.132812 127.988281 800.035156 127.886719 C 798.097656 127.820312 796.167969 127.773438 794.230469 127.773438 C 791.515625 127.761719 788.804688 127.863281 786.09375 127.972656 C 779.734375 128.207031 773.382812 128.484375 767.023438 128.167969 C 764.269531 128.027344 761.523438 127.832031 758.773438 127.695312 C 756.445312 127.578125 754.113281 127.507812 751.785156 127.414062 C 748.335938 127.265625 744.886719 127.125 741.433594 127.050781 C 735.765625 125.113281 729.925781 123.628906 724.542969 120.96875 C 711.859375 114.5 699.609375 107.199219 686.800781 100.949219 C 683.273438 98.90625 679.851562 96.679688 676.46875 94.394531 C 676.757812 93.609375 676.84375 92.808594 676.128906 92.230469 C 676.289062 91.574219 676.460938 90.910156 676.597656 90.246094 C 677.558594 86.125 677.1875 81.859375 675.9375 77.847656 C 674.441406 72.8125 672.910156 67.609375 669.765625 63.328125 C 661.828125 53.945312 648.957031 49.464844 637 48.320312 C 615.378906 46.777344 602.546875 62.5 610.195312 83.15625 C 612.707031 90.316406 617.054688 96.875 623.554688 100.976562 C 636.820312 108.960938 654.378906 109.949219 668.292969 103.023438 C 670.46875 101.804688 672.585938 100.289062 674.171875 98.371094 C 680.757812 102.769531 687.277344 107.265625 693.625 112.015625 C 703.101562 118.808594 713.886719 123.066406 724.71875 127.125 C 724.714844 127.125 724.714844 127.125 724.707031 127.125 C 719.4375 127.230469 714.171875 127.542969 708.910156 127.601562 C 704.085938 127.644531 699.257812 127.445312 694.449219 127.148438 C 690.125 126.878906 685.804688 126.632812 681.480469 126.449219 C 677.058594 126.25 672.640625 126.21875 668.21875 126.273438 C 663.175781 126.335938 658.132812 126.589844 653.089844 126.566406 C 648.886719 126.542969 644.699219 126.402344 640.5 126.320312 C 635.230469 126.207031 629.964844 126.132812 624.703125 126.234375 C 620.25 126.320312 615.800781 126.464844 611.351562 126.664062 C 606.84375 126.863281 602.335938 127.011719 597.828125 126.941406 C 593.320312 126.859375 588.816406 126.585938 584.308594 126.359375 C 575.832031 125.921875 567.363281 125.746094 558.875 125.894531 C 554.367188 125.96875 549.867188 126.050781 545.355469 125.988281 C 540.851562 125.921875 536.351562 125.730469 531.847656 125.664062 C 522.5 125.511719 513.160156 125.785156 503.824219 126.15625 C 498.652344 126.359375 493.496094 126.363281 488.324219 126.199219 C 485.617188 126.113281 482.910156 125.957031 480.203125 125.804688 C 480.203125 125.804688 480.203125 125.800781 480.199219 125.800781 C 480.085938 125.796875 479.976562 125.789062 479.867188 125.785156 C 478.15625 125.6875 476.449219 125.597656 474.738281 125.527344 C 472.628906 125.058594 470.523438 124.566406 468.433594 124.015625 C 463.140625 122.621094 458.179688 120.34375 453.296875 117.902344 C 443.554688 112.941406 433.085938 109.539062 423.460938 104.320312 C 418.246094 101.335938 413.257812 97.945312 408.316406 94.535156 C 401.585938 90.414062 400.691406 85.433594 398.546875 78.425781 C 396.726562 73.128906 394.234375 68.070312 390.921875 63.546875 C 386.171875 56.957031 379.835938 51.765625 373.941406 46.253906 C 365.445312 38 355.253906 31.742188 344.167969 27.59375 C 330.128906 21.917969 315.457031 17.953125 301.425781 12.25 C 293.121094 8.601562 284.644531 5.371094 275.875 2.996094 C 273.394531 2.371094 269.734375 0.628906 267.863281 3.226562 Z M 253.328125 106.304688 C 254.496094 105.214844 255.53125 103.914062 256.714844 102.898438 C 259.457031 100.121094 261.339844 96.625 263.296875 93.28125 C 263.429688 92.429688 262.167969 92.28125 261.679688 92.761719 C 260.082031 95.132812 258.46875 97.496094 256.660156 99.714844 C 254.980469 101.894531 253.359375 104.238281 251.058594 105.789062 C 248.84375 105.199219 246.6875 104.402344 244.683594 103.523438 C 232.460938 97.820312 218.132812 89.125 216.265625 74.53125 C 215.28125 67.921875 218.601562 61.664062 223.914062 57.855469 C 226.613281 55.671875 229.527344 53.605469 232.933594 52.71875 C 239.917969 50.914062 247.597656 52.421875 253.652344 56.234375 C 263.457031 62.585938 270.324219 72.601562 273.03125 83.925781 C 274.121094 87.96875 275.894531 92.171875 274.921875 96.40625 C 274.675781 96.585938 274.445312 96.78125 274.21875 96.980469 C 274.21875 96.980469 274.21875 96.980469 274.214844 96.980469 C 274.210938 96.984375 274.207031 96.992188 274.199219 96.996094 C 273.847656 97.308594 273.511719 97.640625 273.191406 97.984375 C 273.148438 98.03125 273.109375 98.074219 273.070312 98.121094 C 272.78125 98.433594 272.5 98.757812 272.21875 99.089844 C 272.148438 99.175781 272.074219 99.257812 272.003906 99.34375 C 271.738281 99.660156 271.476562 99.976562 271.207031 100.289062 C 270.921875 100.625 270.625 100.953125 270.320312 101.273438 C 269.871094 101.746094 269.402344 102.199219 268.890625 102.597656 C 264.5625 106.832031 258.882812 107.363281 253.332031 106.304688 Z M 355.539062 210.9375 C 363.78125 204.925781 371.730469 198.402344 380.664062 193.40625 C 393.066406 186.746094 406.417969 182.113281 419.621094 177.308594 C 433.480469 172.734375 447.894531 170.257812 462.085938 166.914062 C 454.953125 169.832031 448.0625 173.339844 441.207031 176.871094 C 430.597656 183.46875 419.8125 189.746094 408.878906 195.792969 C 393.570312 204.921875 376.78125 211.148438 361.050781 219.5 C 348.933594 224.699219 338.046875 232.382812 327.574219 240.308594 C 327.476562 240.398438 327.363281 240.472656 327.261719 240.558594 C 327.664062 239.257812 328.230469 238.003906 328.8125 236.777344 C 334.820312 225.753906 345.285156 217.824219 355.539062 210.9375 Z M 404.316406 217.269531 C 395.964844 222.574219 386.621094 225.855469 377.386719 229.242188 C 361.292969 235.121094 344.746094 240.574219 327.734375 242.816406 C 336.832031 235.773438 345.890625 228.59375 356.328125 223.597656 C 362.535156 220.261719 368.957031 217.367188 375.398438 214.511719 C 375.320312 214.804688 375.335938 215.117188 375.503906 215.40625 C 375.964844 216.203125 377.09375 216.089844 377.769531 215.695312 C 378.34375 215.371094 378.789062 214.789062 378.789062 214.160156 C 378.789062 213.972656 378.746094 213.777344 378.660156 213.585938 C 378.546875 213.433594 378.410156 213.332031 378.265625 213.242188 C 386.132812 209.753906 393.988281 206.242188 401.46875 201.964844 C 412.285156 196.945312 422.582031 190.886719 432.554688 184.378906 C 438.300781 181.234375 444.203125 178.394531 449.824219 175.007812 C 454.316406 172.300781 459.25 170.5 464.128906 168.585938 C 459.855469 170.800781 455.507812 172.871094 451.4375 175.464844 C 445.945312 179.105469 441.046875 183.550781 435.574219 187.21875 C 434.589844 187.613281 434.882812 188.664062 435.804688 187.980469 C 442.332031 183.605469 448.164062 178.21875 454.984375 174.265625 C 458.382812 172.621094 461.613281 170.597656 465.105469 169.164062 C 465.214844 169.117188 465.324219 169.058594 465.4375 169.011719 C 459.585938 174.007812 453.183594 178.324219 447.167969 183.117188 C 433.539062 195.277344 419.742188 207.40625 404.320312 217.269531 Z M 509.777344 212.417969 C 515.820312 207.4375 522.914062 203.976562 529.347656 199.558594 C 541.019531 191.550781 552.769531 183.296875 566.148438 178.386719 C 575.59375 175.058594 585.402344 172.902344 595.089844 170.433594 C 606.441406 167.246094 618.1875 165.988281 629.84375 164.457031 C 630.164062 164.414062 630.605469 164.25 629.933594 164.625 C 629.734375 164.742188 629.539062 164.871094 629.339844 164.988281 C 625.542969 165.585938 619.652344 167.257812 618.957031 167.246094 C 609.832031 168.519531 600.996094 170.996094 592.140625 173.449219 C 590.886719 173.949219 585.898438 174.457031 586.050781 176.023438 C 586.3125 176.703125 587.152344 176.378906 587.667969 176.226562 C 591.210938 175.230469 594.625 173.804688 598.253906 173.109375 C 606.039062 171.558594 613.785156 169.828125 621.53125 168.121094 C 622.511719 168.003906 623.488281 167.859375 624.464844 167.691406 C 621.339844 169.097656 618.152344 170.410156 614.964844 171.667969 C 607.351562 175.246094 599.34375 177.742188 591.476562 180.6875 C 581.589844 184.480469 572.066406 189.007812 562.554688 193.648438 C 538.308594 206.101562 517.085938 224.035156 491.683594 234.25 C 495.511719 225.882812 502.769531 218.394531 509.777344 212.417969 Z M 579.601562 201.28125 C 567.082031 207.820312 554.359375 214.070312 541.398438 219.703125 C 524.363281 226.464844 507.039062 232.5 489.910156 239.023438 C 490.191406 238.019531 490.539062 237.027344 490.925781 236.042969 C 502.015625 231.445312 512.78125 226.019531 523.054688 219.828125 C 535.492188 211.480469 547.945312 203.058594 561.386719 196.40625 C 576.488281 187.957031 593.253906 183.144531 609.050781 176.207031 C 611.917969 175.234375 614.726562 174.101562 617.496094 172.878906 C 616.570312 173.550781 615.648438 174.230469 614.730469 174.914062 C 607.039062 177.257812 600.121094 181.4375 593.296875 185.652344 C 592.941406 185.878906 592.898438 186.472656 593.371094 186.574219 C 598.902344 183.71875 604.472656 180.511719 610.367188 178.226562 C 608.433594 179.722656 606.511719 181.230469 604.59375 182.738281 C 596.535156 189.261719 588.753906 196.285156 579.601562 201.277344 Z M 664.691406 100.535156 C 660.570312 101.875 656.273438 102.65625 651.953125 102.910156 C 652.039062 102.777344 652.132812 102.640625 652.195312 102.496094 C 651.894531 101.566406 651 102.632812 650.539062 102.964844 C 643.613281 103.167969 636.417969 102.382812 630.40625 98.71875 C 621.558594 93.179688 615.175781 83.65625 613.039062 73.476562 C 612.410156 67.59375 616.40625 61.5625 620.777344 57.925781 C 625.761719 53.847656 632.351562 52.6875 638.636719 52.894531 C 648.730469 52.675781 658.039062 58.269531 664.136719 66.066406 C 665.589844 67.742188 666.796875 69.523438 667.8125 71.386719 C 668.710938 77.351562 667.082031 83.699219 664.902344 89.21875 C 666.625 91.710938 669.457031 79.386719 669.363281 78.15625 C 669.5625 77.199219 669.632812 76.242188 669.632812 75.289062 C 670.929688 78.628906 671.703125 82.164062 672.125 85.777344 C 672.027344 85.859375 671.949219 85.949219 671.894531 86.0625 C 671.632812 86.417969 672.050781 86.75 671.921875 87.105469 C 670.414062 91.578125 666.644531 94.875 663.535156 98.285156 C 663.253906 98.703125 662.148438 99.0625 662.613281 99.65625 C 663.082031 100.007812 663.578125 99.5 663.890625 99.160156 C 667.210938 96.191406 670.019531 92.640625 672.394531 88.867188 C 672.476562 90.113281 672.519531 91.367188 672.53125 92.621094 C 672.53125 92.847656 672.539062 93.074219 672.539062 93.304688 C 672.410156 93.835938 672.226562 94.335938 672.015625 94.816406 C 671.949219 94.964844 671.863281 95.101562 671.792969 95.246094 C 671.625 95.566406 671.449219 95.882812 671.25 96.179688 C 669.757812 98.382812 667.355469 99.859375 664.691406 100.535156 Z M 183.003906 117.6875 C 183.003906 117.6875 183 117.679688 183 117.675781 C 183.015625 117.683594 183.027344 117.691406 183.042969 117.699219 C 183.027344 117.695312 183.015625 117.691406 183.003906 117.6875 Z M 22.445312 48.421875 C 37.527344 49.84375 52.058594 54.011719 66.636719 57.933594 C 80.828125 61.066406 94.515625 65.941406 108.429688 70.078125 C 122.144531 73.65625 134.5 80.644531 146.457031 88.070312 C 155.320312 93.402344 163.878906 99.25 172.007812 105.648438 C 175.574219 108.589844 179.121094 111.597656 182.867188 114.300781 C 180.089844 112.566406 177.335938 110.800781 174.414062 109.304688 C 174.078125 109.132812 173.746094 108.941406 173.410156 108.765625 C 173.304688 108.664062 173.191406 108.574219 173.089844 108.46875 C 160.964844 98.863281 149.132812 88.367188 134.902344 81.988281 C 134.550781 81.933594 134.152344 82.167969 134.152344 82.550781 C 134.152344 82.980469 134.597656 83.121094 134.917969 83.269531 C 146.144531 88.292969 155.746094 96.011719 165.058594 103.925781 C 160.273438 100.988281 155.546875 97.941406 150.570312 95.332031 C 135.441406 88.03125 120.523438 80.207031 104.574219 74.796875 C 98.136719 73.003906 92.003906 70.289062 85.566406 68.507812 C 76.804688 66.296875 67.988281 64.242188 59.132812 62.4375 C 45.769531 59.484375 32.71875 55.074219 19.816406 50.523438 C 18.464844 50.074219 17.152344 49.496094 15.84375 48.925781 C 17.859375 48.015625 20.277344 48.261719 22.445312 48.421875 Z M 130.078125 99.964844 C 120.566406 96.78125 111.308594 92.878906 101.757812 89.828125 C 95.3125 88.042969 88.882812 86.164062 82.546875 84.027344 C 66.429688 78.257812 50.339844 72.367188 34.878906 65.003906 C 28.566406 62.484375 22.789062 58.84375 18.195312 53.789062 C 17.296875 52.8125 16.375 51.714844 15.785156 50.496094 C 16.414062 50.753906 17.046875 51.007812 17.644531 51.300781 C 39.726562 60.980469 63.617188 64.960938 86.730469 71.347656 C 97.699219 73.980469 107.957031 78.589844 118.398438 82.738281 C 128.3125 87.359375 138.636719 91.109375 148 96.84375 C 154.019531 100.292969 160.222656 103.417969 166.1875 106.964844 C 170.730469 109.910156 175.050781 113.203125 179.761719 115.882812 C 180.1875 116.105469 180.601562 116.339844 181.019531 116.570312 C 177.988281 115.304688 174.851562 114.144531 171.703125 113.132812 C 160.5 108.433594 150.222656 101.65625 139.136719 96.753906 C 138.757812 96.746094 138.316406 97.015625 138.398438 97.457031 C 138.527344 97.929688 139.074219 98.046875 139.445312 98.269531 C 143.242188 100.0625 146.757812 102.359375 150.566406 104.109375 C 153.527344 105.632812 156.460938 107.195312 159.410156 108.726562 C 149.65625 105.726562 139.738281 103.273438 130.078125 99.964844 Z M 7.558594 150.519531 C 10.058594 147.035156 13.476562 144.269531 16.855469 141.683594 C 22.960938 136.980469 29.953125 133.71875 37.09375 130.941406 C 44.804688 127.824219 52.507812 124.585938 60.503906 122.289062 C 68.078125 120.074219 76.015625 119.835938 83.8125 119.015625 C 91.378906 118.355469 98.90625 117.261719 106.492188 116.867188 C 113.949219 116.539062 121.390625 115.820312 128.859375 115.8125 C 139.683594 115.691406 150.402344 117.402344 161.175781 118.132812 C 167.515625 118.652344 173.824219 119.511719 180.054688 120.746094 C 174.367188 119.933594 168.671875 119.132812 162.90625 119.1875 C 153.574219 118.46875 144.25 119.871094 134.90625 119.730469 C 134.335938 119.609375 134.019531 120.277344 134.59375 120.488281 C 134.777344 120.546875 135 120.511719 135.191406 120.507812 C 148.335938 120.5 161.527344 119.628906 174.613281 121.160156 C 179.355469 121.722656 183.992188 123.058594 188.734375 123.363281 C 189.175781 123.527344 189.621094 123.691406 190.066406 123.855469 C 189.785156 123.898438 189.503906 123.941406 189.21875 123.984375 C 185.339844 123.339844 181.402344 122.988281 177.476562 122.609375 C 170.292969 122.019531 163.105469 122.964844 155.914062 122.695312 C 148.867188 122.695312 141.871094 123.613281 134.925781 124.695312 C 126.765625 125.203125 118.777344 126.902344 110.722656 128.175781 C 102.679688 130.117188 94.496094 131.359375 86.457031 133.292969 C 78.375 134.855469 70.492188 137.226562 62.378906 138.628906 C 54.890625 140.402344 47.460938 142.441406 39.925781 144.003906 C 32.566406 145.742188 25.503906 148.605469 17.941406 149.425781 C 14.492188 149.945312 11.011719 150.277344 7.527344 150.558594 C 7.535156 150.546875 7.542969 150.53125 7.554688 150.519531 Z M 132.289062 139.113281 C 117.152344 142.777344 101.855469 145.804688 86.957031 150.441406 C 72.035156 154.605469 56.320312 153.054688 41.027344 154.453125 C 33.570312 155.039062 26.09375 154.941406 18.625 154.601562 C 16.117188 154.222656 8.40625 154.992188 7.15625 152.453125 C 11 152.167969 14.832031 151.777344 18.632812 151.082031 C 28.519531 149.121094 38.355469 146.972656 47.957031 143.863281 C 55.566406 141.90625 63.292969 140.433594 70.847656 138.257812 C 84.59375 135.761719 98.070312 131.964844 111.882812 129.867188 C 120.011719 128.433594 128.21875 127.367188 136.386719 126.148438 C 143.550781 125.714844 150.722656 125.34375 157.886719 124.769531 C 160.589844 124.496094 163.289062 124.539062 165.984375 124.703125 C 160.269531 125.476562 154.582031 126.671875 148.910156 127.746094 C 148.300781 127.753906 148.171875 128.328125 148.753906 128.460938 C 156.007812 127.152344 163.273438 125.773438 170.621094 125.070312 C 173.296875 125.316406 175.972656 125.578125 178.652344 125.675781 C 178.675781 125.675781 178.703125 125.675781 178.726562 125.675781 C 173.214844 126.621094 167.722656 127.644531 162.253906 128.804688 C 151.910156 131.1875 142.601562 136.59375 132.292969 139.113281 Z M 256.726562 155.40625 C 255.859375 151.929688 254.054688 148.707031 251.644531 146.058594 C 251.414062 145.839844 251.140625 145.515625 250.835938 145.144531 C 258.847656 146.5625 266.457031 149.640625 272.019531 154.394531 C 272.15625 154.5625 272.28125 154.765625 272.40625 154.972656 C 267.179688 154.414062 261.816406 154.328125 256.726562 155.40625 Z M 210.488281 188.835938 C 204.933594 181.898438 203.433594 171.453125 207.960938 163.609375 C 211.832031 156.957031 216.851562 150.238281 224.03125 146.96875 C 230.871094 144.457031 239.195312 143.703125 247.34375 144.636719 C 251.007812 147.039062 253.519531 150.894531 254.675781 155.097656 C 254.789062 155.300781 254.855469 155.566406 254.910156 155.84375 C 252.714844 156.445312 250.578125 157.273438 248.542969 158.414062 C 237.832031 164.328125 230.785156 176.378906 229.269531 188.351562 C 229.15625 190.839844 229.640625 193.21875 230.535156 195.4375 C 223.371094 196.523438 215.539062 194.046875 210.488281 188.835938 Z M 285.796875 180.539062 C 285.769531 180.457031 285.734375 180.371094 285.707031 180.289062 C 285.292969 179.511719 285.269531 177.953125 284.125 178 C 283.175781 178.09375 282.875 178.882812 283.410156 179.644531 C 283.84375 180.683594 284.175781 181.765625 284.289062 182.890625 C 284.324219 183.480469 284.371094 184.082031 284.296875 184.664062 C 280.113281 195.292969 272.050781 204.855469 260.519531 207.394531 C 251.269531 209.53125 241.175781 204.640625 236.707031 196.5 C 236.5625 196.242188 236.421875 195.988281 236.292969 195.722656 C 236.113281 195.355469 235.953125 194.976562 235.796875 194.601562 C 235.679688 194.320312 235.558594 194.042969 235.457031 193.757812 C 234.984375 192.453125 234.640625 191.085938 234.472656 189.667969 C 233.570312 180.039062 239.109375 171.246094 246.882812 165.972656 C 252.011719 162.40625 257.890625 159.316406 264.1875 158.9375 C 265.5 159.574219 266.8125 160.203125 268.050781 160.980469 C 271.253906 163.019531 274.355469 165.265625 277.234375 167.738281 C 278.097656 168.488281 278.914062 169.277344 279.652344 170.132812 C 280.054688 170.570312 280.910156 170.296875 280.996094 169.714844 C 277.875 165 272.617188 162.066406 267.949219 158.964844 C 272.964844 159.101562 278.589844 159.394531 282.285156 162.777344 C 282.085938 162.734375 281.867188 162.742188 281.664062 162.808594 C 281.25 162.945312 280.789062 163.371094 280.953125 163.851562 C 281.113281 164.328125 281.734375 164.394531 282.144531 164.253906 C 282.535156 164.125 282.875 163.800781 282.875 163.394531 C 282.875 163.375 282.871094 163.355469 282.871094 163.339844 C 283.390625 163.898438 283.871094 164.523438 284.292969 165.238281 C 285.042969 166.246094 285.632812 167.175781 286.105469 168.066406 C 286.191406 168.222656 286.277344 168.382812 286.351562 168.539062 C 286.660156 169.164062 286.898438 169.769531 287.082031 170.363281 C 287.097656 170.410156 287.105469 170.453125 287.121094 170.5 C 288.035156 173.660156 287.289062 176.535156 285.800781 180.535156 Z M 341.113281 136.085938 C 331.847656 139.773438 322.464844 143.34375 314.105469 148.882812 C 305.902344 154.480469 297.761719 160.171875 289.398438 165.53125 C 287.183594 160.414062 283.355469 156.375 277.226562 155.601562 C 276.734375 155.523438 276.238281 155.453125 275.742188 155.382812 C 275.371094 153.472656 272.210938 150.65625 270.515625 149.160156 C 276.988281 147.191406 283.589844 145.589844 290.132812 143.847656 C 301.984375 140.90625 313.574219 136.582031 325.707031 134.921875 C 332.792969 134.023438 339.964844 133.8125 347.019531 132.664062 C 349.046875 132.273438 351.078125 131.894531 353.113281 131.539062 C 349.046875 132.855469 345.074219 134.492188 341.117188 136.085938 Z M 374.078125 80.425781 C 368.0625 77.480469 362.347656 73.929688 356.683594 70.355469 C 345.480469 62.605469 333.003906 56.886719 322.277344 48.433594 C 310.632812 39.65625 298.191406 32 286.632812 23.097656 C 280.789062 18.804688 275.894531 13.300781 272.644531 6.796875 C 272.589844 6.648438 272.160156 6.101562 272.242188 5.839844 C 272.25 5.816406 272.628906 5.917969 273.078125 6.050781 C 273.261719 6.1875 273.449219 6.320312 273.621094 6.46875 C 279.972656 11.136719 287.226562 14.367188 293.949219 18.441406 C 306.027344 25.53125 318.371094 32.183594 330.175781 39.707031 C 336.523438 43.414062 342.777344 47.257812 349.242188 50.742188 C 355.628906 55.085938 362.011719 59.46875 368.183594 64.109375 C 374.242188 69.175781 379.589844 75.046875 385.757812 80 C 387.429688 81.757812 389.265625 83.320312 391.125 84.851562 C 388.386719 83.855469 385.78125 82.800781 382.785156 81.4375 C 377.996094 79.058594 373.726562 75.726562 369.167969 72.953125 C 368.675781 72.464844 367.886719 72.988281 368.628906 73.429688 C 375.628906 79.03125 383.554688 83.453125 392.027344 86.378906 C 385.933594 84.714844 379.820312 83.125 374.078125 80.421875 Z M 320.59375 23.457031 C 327.800781 26.371094 335.40625 28.164062 342.511719 31.304688 C 353.226562 36.605469 364.042969 42.277344 372.945312 50.363281 C 383.144531 60.636719 392.324219 72.71875 397.1875 86.457031 C 396.882812 85.976562 396.554688 85.480469 396.371094 85.027344 C 390.992188 77.96875 386.238281 70.429688 381.074219 63.199219 C 379.523438 61.308594 378.035156 59.378906 376.542969 57.441406 C 376.339844 57.058594 375.871094 56.714844 375.492188 57.089844 C 375.339844 57.257812 375.355469 57.460938 375.46875 57.644531 C 377.160156 59.734375 378.765625 61.894531 380.246094 64.144531 C 383.265625 68.066406 385.625 72.398438 388.382812 76.496094 C 390.167969 78.804688 391.871094 81.183594 393.503906 83.601562 C 391.507812 81.648438 389.519531 79.6875 387.3125 77.960938 C 379.046875 69.621094 369.53125 62.632812 360.097656 55.6875 C 352.054688 50.535156 343.78125 45.730469 335.550781 40.882812 C 323.308594 33.679688 311.183594 26.3125 298.988281 19.03125 C 291.941406 15.300781 284.683594 11.972656 278.015625 7.589844 C 292.476562 12.148438 306.65625 17.503906 320.59375 23.457031 Z M 257.535156 151.667969 C 257.316406 151.578125 257.21875 151.316406 256.960938 151.328125 C 256.675781 151.230469 256.429688 150.996094 256.445312 150.671875 C 256.683594 149.375 258.917969 149.84375 258.917969 151.042969 C 258.765625 151.613281 258.066406 151.894531 257.535156 151.667969 Z M 263.742188 88.324219 C 263.746094 87.707031 264.246094 87.121094 264.664062 86.699219 C 265.121094 86.371094 266.050781 86.53125 265.957031 87.207031 C 265.664062 88.003906 264.464844 89.472656 263.742188 88.320312 Z M 262.550781 101.65625 C 264.472656 99.390625 265.917969 96.683594 267.40625 94.074219 C 268.164062 93.242188 268.335938 91.140625 269.695312 91.253906 C 269.996094 91.296875 270.304688 91.574219 270.222656 91.890625 C 270.148438 93.003906 263.082031 105.183594 262.550781 101.65625 Z M 269.109375 86.5625 C 269.65625 86.476562 270.25 86.707031 270.394531 87.277344 C 270.394531 87.296875 270.394531 87.316406 270.394531 87.335938 C 270.394531 87.894531 269.910156 88.273438 269.375 88.347656 C 268.867188 88.425781 268.179688 88.210938 268.089844 87.632812 C 268 87.042969 268.597656 86.636719 269.109375 86.5625 Z M 659.679688 95.253906 C 659.675781 94.617188 660.449219 94.453125 660.894531 94.1875 C 661.28125 93.816406 662.675781 93.40625 662.019531 94.378906 C 661.5 94.953125 660.28125 96.550781 659.679688 95.253906 Z M 625.960938 65.332031 C 624.324219 65.707031 621.953125 65.226562 621.523438 63.316406 C 621.085938 61.414062 623.011719 59.953125 624.644531 59.578125 C 626.425781 59.171875 628.46875 59.734375 629.089844 61.589844 C 629.105469 61.722656 629.113281 61.851562 629.113281 61.980469 C 629.113281 63.714844 627.617188 64.953125 625.960938 65.332031 Z M 623.46875 79.746094 C 622.902344 79.890625 622.070312 79.75 621.902344 79.089844 C 621.726562 78.429688 622.382812 77.90625 622.945312 77.753906 C 623.5625 77.597656 624.285156 77.769531 624.519531 78.410156 C 624.527344 78.464844 624.53125 78.523438 624.53125 78.578125 C 624.53125 79.167969 624.03125 79.597656 623.464844 79.746094 Z M 245.488281 191.914062 C 246.34375 191.886719 247.21875 192.105469 247.933594 192.585938 C 248.75 193.140625 249.164062 193.914062 249.285156 194.871094 C 249.242188 195.671875 249.023438 196.347656 248.457031 196.933594 C 247.75 197.671875 246.730469 198.066406 245.71875 198.101562 C 243.976562 198.164062 241.988281 197.0625 241.917969 195.148438 C 241.84375 193.230469 243.746094 191.984375 245.488281 191.914062 Z M 239.578125 189.230469 C 239.8125 189.222656 240.042969 189.304688 240.226562 189.453125 C 240.449219 189.632812 240.550781 189.878906 240.574219 190.164062 C 240.5625 190.398438 240.5 190.605469 240.339844 190.785156 C 240.152344 190.996094 239.878906 191.113281 239.597656 191.121094 C 239.078125 191.125 238.605469 190.71875 238.597656 190.1875 C 238.59375 189.648438 239.058594 189.234375 239.578125 189.230469 Z M 216.820312 171.613281 C 216.113281 172.464844 215.050781 172.972656 213.941406 172.972656 C 211.796875 172.960938 210.125 171.09375 210.128906 168.996094 C 210.136719 166.898438 211.820312 165.039062 213.964844 165.046875 C 214.886719 165.046875 215.78125 165.402344 216.464844 166.027344 C 217.34375 166.828125 217.6875 167.867188 217.765625 169.019531 C 217.695312 169.988281 217.464844 170.859375 216.820312 171.613281 Z M 215.042969 182.824219 C 214.753906 183.167969 214.316406 183.378906 213.863281 183.378906 C 212.984375 183.371094 212.304688 182.597656 212.308594 181.738281 C 212.316406 180.878906 213.007812 180.121094 213.882812 180.125 C 214.261719 180.125 214.628906 180.277344 214.910156 180.527344 C 215.269531 180.859375 215.410156 181.289062 215.4375 181.757812 C 215.410156 182.15625 215.3125 182.511719 215.046875 182.820312 Z M 221.425781 65.585938 C 222.34375 60.320312 228.925781 61.691406 228.339844 66.78125 C 227.445312 72.058594 220.828125 70.65625 221.425781 65.585938 Z M 586.941406 190.617188 C 587.238281 190.410156 587.949219 190.214844 587.957031 190.769531 C 587.90625 190.984375 587.773438 191.160156 587.5625 191.242188 C 586.042969 191.730469 584.585938 192.519531 583.132812 193.21875 C 582.921875 193.359375 582.550781 193.316406 582.511719 193.023438 C 582.464844 192.800781 582.609375 192.597656 582.773438 192.472656 C 583.488281 192.109375 584.179688 191.695312 584.894531 191.351562 C 585.539062 191 586.222656 190.75 586.941406 190.617188 Z M 422.222656 195.992188 C 422.589844 195.890625 423.289062 195.207031 423.421875 195.933594 C 422.332031 197.132812 419.734375 198.566406 418.300781 199.667969 C 417.265625 200.308594 416.539062 201.527344 415.453125 201.980469 C 414.019531 201.5625 417.898438 199.515625 418.273438 198.902344 C 419.441406 197.746094 420.863281 196.898438 422.222656 195.992188 Z M 426.515625 179.140625 C 426.171875 179.292969 425.589844 179.644531 425.421875 179.117188 C 425.378906 178.910156 425.515625 178.746094 425.675781 178.628906 C 426.984375 177.925781 428.382812 177.398438 429.738281 176.78125 C 433.75 175.265625 437.789062 173.644531 441.960938 172.585938 C 444.085938 171.871094 446.191406 170.976562 448.4375 170.746094 C 448.917969 170.652344 449.84375 170.199219 449.828125 171.058594 C 449.695312 171.628906 449.09375 171.609375 448.625 171.636719 C 444.828125 172.582031 441.070312 173.617188 437.371094 174.933594 C 433.621094 175.976562 430.035156 177.511719 426.515625 179.140625 Z M 369.34375 51.160156 C 370.125 50.710938 371.472656 51.800781 371.363281 52.640625 C 371.144531 53.6875 369.53125 53.644531 369.238281 52.664062 C 369.199219 52.144531 368.695312 51.511719 369.34375 51.160156 Z M 131.003906 94.046875 C 131.460938 92.675781 133.820312 93.300781 133.640625 94.691406 C 133.292969 96.21875 130.652344 95.53125 131.003906 94.046875 Z M 386.0625 200.253906 C 385.742188 200.433594 385.21875 200.488281 385.003906 200.121094 C 384.792969 199.746094 385.101562 199.320312 385.417969 199.136719 C 385.765625 198.9375 386.226562 198.921875 386.476562 199.269531 C 386.515625 199.359375 386.535156 199.445312 386.535156 199.53125 C 386.535156 199.828125 386.328125 200.097656 386.0625 200.253906 Z M 533.800781 205.835938 C 533.132812 205.371094 533.316406 204.386719 533.710938 203.816406 C 534.148438 203.191406 534.925781 202.792969 535.636719 203.191406 C 535.945312 203.449219 536.074219 203.796875 536.074219 204.15625 C 536.074219 204.519531 535.941406 204.898438 535.726562 205.210938 C 535.328125 205.78125 534.464844 206.296875 533.800781 205.839844 Z M 554.285156 210.835938 C 554.484375 211.007812 554.566406 211.238281 554.566406 211.472656 C 554.566406 211.722656 554.46875 211.984375 554.3125 212.199219 C 554.039062 212.582031 553.449219 212.914062 553.007812 212.589844 C 552.566406 212.269531 552.699219 211.609375 552.976562 211.230469 C 553.277344 210.816406 553.808594 210.554688 554.285156 210.835938 Z M 336.046875 31.40625 C 336.492188 31.101562 337.070312 31.160156 337.40625 31.585938 C 337.492188 31.742188 337.535156 31.902344 337.535156 32.0625 C 337.535156 32.390625 337.359375 32.707031 337.058594 32.910156 C 336.640625 33.195312 336 33.183594 335.699219 32.738281 C 335.390625 32.285156 335.625 31.691406 336.046875 31.40625 Z M 336.425781 52.785156 C 336.011719 53.085938 335.425781 52.957031 335.132812 52.546875 C 334.835938 52.140625 334.90625 51.546875 335.320312 51.246094 C 335.503906 51.117188 335.722656 51.058594 335.945312 51.082031 C 336.226562 51.117188 336.4375 51.269531 336.617188 51.480469 C 336.726562 51.660156 336.800781 51.835938 336.800781 52.039062 C 336.800781 52.0625 336.800781 52.089844 336.796875 52.117188 C 336.78125 52.382812 336.644531 52.632812 336.425781 52.785156 Z M 315.246094 37.117188 C 314.679688 37.480469 313.886719 37.351562 313.515625 36.773438 C 313.152344 36.195312 313.375 35.421875 313.941406 35.0625 C 314.199219 34.902344 314.507812 34.828125 314.804688 34.867188 C 315.179688 34.917969 315.453125 35.121094 315.667969 35.410156 C 315.78125 35.621094 315.851562 35.832031 315.851562 36.058594 C 315.851562 36.121094 315.84375 36.183594 315.835938 36.25 C 315.773438 36.609375 315.554688 36.925781 315.246094 37.117188 Z M 246.972656 68.890625 C 247.296875 68.761719 247.660156 68.867188 247.816406 69.183594 C 247.835938 69.25 247.847656 69.3125 247.847656 69.375 C 247.847656 69.640625 247.675781 69.875 247.414062 69.980469 C 247.113281 70.105469 246.703125 70.019531 246.570312 69.691406 C 246.433594 69.363281 246.667969 69.019531 246.972656 68.890625 Z M 240.019531 88.410156 C 239.398438 88.664062 238.558594 88.488281 238.285156 87.8125 C 238.015625 87.132812 238.5 86.429688 239.125 86.175781 C 239.796875 85.90625 240.527344 86.128906 240.859375 86.777344 C 240.898438 86.90625 240.917969 87.039062 240.917969 87.164062 C 240.917969 87.710938 240.566406 88.191406 240.019531 88.410156 Z M 233.699219 155.40625 C 233.214844 155.664062 232.425781 155.710938 232.128906 155.152344 C 231.832031 154.585938 232.3125 153.964844 232.792969 153.707031 C 233.320312 153.429688 234.015625 153.429688 234.367188 153.960938 C 234.417969 154.085938 234.441406 154.210938 234.441406 154.332031 C 234.441406 154.78125 234.117188 155.1875 233.703125 155.40625 Z M 70.367188 126.828125 C 70.121094 127.023438 69.804688 127.105469 69.496094 127.042969 C 68.902344 126.921875 68.550781 126.300781 68.675781 125.71875 C 68.792969 125.140625 69.359375 124.710938 69.957031 124.832031 C 70.207031 124.882812 70.4375 125.035156 70.589844 125.246094 C 70.738281 125.457031 70.792969 125.683594 70.792969 125.921875 C 70.792969 126 70.789062 126.074219 70.777344 126.15625 C 70.703125 126.425781 70.585938 126.652344 70.367188 126.828125 Z M 62.410156 144.59375 C 62.648438 144.683594 62.847656 144.867188 62.964844 145.097656 C 63.042969 145.257812 63.078125 145.417969 63.078125 145.582031 C 63.078125 145.726562 63.050781 145.871094 63.007812 146.015625 C 62.890625 146.261719 62.746094 146.46875 62.503906 146.609375 C 62.234375 146.757812 61.90625 146.792969 61.613281 146.683594 C 61.054688 146.46875 60.808594 145.808594 61.015625 145.261719 C 61.222656 144.710938 61.84375 144.378906 62.410156 144.59375 Z M 49.652344 130.28125 C 49.421875 130.367188 49.152344 130.359375 48.933594 130.234375 C 48.511719 129.996094 48.398438 129.433594 48.632812 129.027344 C 48.863281 128.613281 49.398438 128.421875 49.824219 128.664062 C 50.003906 128.761719 50.136719 128.933594 50.207031 129.132812 C 50.234375 129.21875 50.246094 129.304688 50.246094 129.390625 C 50.246094 129.550781 50.199219 129.710938 50.125 129.863281 C 50.003906 130.050781 49.863281 130.199219 49.652344 130.277344 Z M 77.617188 75.511719 C 77.292969 75.609375 76.921875 75.578125 76.648438 75.363281 C 76.078125 74.933594 76.183594 74.089844 76.574219 73.578125 C 76.960938 73.066406 77.75 72.734375 78.316406 73.171875 C 78.542969 73.34375 78.671875 73.609375 78.707031 73.894531 C 78.710938 73.941406 78.714844 73.988281 78.714844 74.03125 C 78.714844 74.367188 78.578125 74.675781 78.390625 74.957031 C 78.175781 75.210938 77.941406 75.410156 77.617188 75.511719 Z M 121.84375 135.488281 C 122.164062 135.710938 122.363281 136.054688 122.429688 136.433594 C 122.449219 136.535156 122.460938 136.636719 122.460938 136.734375 C 122.460938 137.132812 122.316406 137.503906 122.105469 137.859375 C 121.839844 138.195312 121.542969 138.472656 121.121094 138.613281 C 120.679688 138.757812 120.1875 138.726562 119.800781 138.457031 C 119.023438 137.925781 119.039062 136.8125 119.539062 136.089844 C 120.03125 135.375 121.058594 134.953125 121.84375 135.488281 Z M 121.84375 135.488281 " fill-opacity="1" fill-rule="nonzero"/></g></g></g></g></svg>